<svg width="1031" height="340" viewBox="0 0 1031 340" fill="none" xmlns="http://www.w3.org/2000/svg">
<path d="M184 1H1030.5V269.646V338.385C690.334 338.805 60.4 339.394 40 338.385C19.6 337.376 -16.5002 320.727 11 269.646L53.1292 194.602L116.5 81.7201L117.188 80.4036C146.685 23.976 158.696 1.00001 184 1Z" fill="white"/>
<path d="M116.5 81.7201C146.5 24.3331 158.5 1.00001 184 1H1030.5V269.646V338.385C690.334 338.805 60.4 339.394 40 338.385C19.6 337.376 -16.5002 320.727 11 269.646M116.5 81.7201C86.4999 139.107 17 267.124 11 269.646M116.5 81.7201L53.1292 194.602L11 269.646" stroke="white"/>
<path d="M1030.45 338.385C690.28 338.805 60.3465 339.394 39.9465 338.385C24.116 337.602 -1.16904 327.401 1.14884 299H1030.45V338.385Z" fill="#BBFF1A" stroke="white"/>
</svg>
