<svg width="1031" height="270" viewBox="0 0 1031 270" fill="none" xmlns="http://www.w3.org/2000/svg">
<path d="M184 1H1030.5V214V268.5C690.334 268.833 60.4 269.3 40 268.5C19.6 267.7 -16.5002 254.5 11 214L53.1292 154.5L116.5 65L117.188 63.9562C146.685 19.2169 158.696 1.00001 184 1Z" fill="white"/>
<path d="M116.5 65C146.5 19.5 158.5 1.00001 184 1H1030.5V214V268.5C690.334 268.833 60.4 269.3 40 268.5C19.6 267.7 -16.5002 254.5 11 214M116.5 65C86.4999 110.5 17 212 11 214M116.5 65L53.1292 154.5L11 214" stroke="white"/>
<path d="M39.9465 268.5C19.5465 267.7 -16.5536 254.5 10.9466 214H1030.45V268.5C690.28 268.833 60.3465 269.3 39.9465 268.5Z" fill="#BBFF1A" stroke="white"/>
</svg>
