<svg width="300" height="143" viewBox="0 0 300 143" fill="none" xmlns="http://www.w3.org/2000/svg">
<path fill-rule="evenodd" clip-rule="evenodd" d="M0.5 142.5L63.5 99.5L54 78.5L261 1.5L299 57L115.5 108L111.5 131L0.5 142.5ZM73 104C53.3333 115 13.6 137.3 12 138.5L106 124.5L108.5 108L286.5 51L258 11L63.5 83L73 104Z" fill="black" fill-opacity="0.81"/>
<path d="M12 138.5C13.6 137.3 53.3333 115 73 104L63.5 83L258 11L286.5 51L108.5 108L106 124.5L12 138.5Z" fill="white"/>
<path fill-rule="evenodd" clip-rule="evenodd" d="M0.5 142.5L63.5 99.5L54 78.5L261 1.5L299 57L115.5 108L111.5 131L0.5 142.5ZM73 104C53.3333 115 13.6 137.3 12 138.5L106 124.5L108.5 108L286.5 51L258 11L63.5 83L73 104Z" stroke="white"/>
<path d="M12 138.5C13.6 137.3 53.3333 115 73 104L63.5 83L258 11L286.5 51L108.5 108L106 124.5L12 138.5Z" stroke="white"/>
<path d="M160.5 89.5L148 53.5L163 49L175.5 84L160.5 89.5Z" fill="black"/>
<path d="M142.161 84.4515C141.854 85.0821 141.171 85.5801 140.112 85.9453C139.084 86.3001 138.229 86.1041 137.548 85.3573C136.945 86.75 135.706 87.7699 133.831 88.4169C132.575 88.85 131.48 88.864 130.545 88.4588C129.615 88.0688 128.964 87.3368 128.594 86.2629C127.717 83.7219 128.987 81.5405 132.404 79.7186C133.033 79.3832 133.564 79.1322 133.998 78.9658C134.103 78.9292 134.214 78.8825 134.33 78.8257C134.421 78.7944 134.509 78.7555 134.595 78.7091C134.67 78.683 134.743 78.6493 134.814 78.6081L134.987 78.5228C134.575 77.3279 134.126 76.5179 133.641 76.0929C133.039 75.573 132.246 75.4826 131.263 75.8218C129.448 76.4479 128.416 77.6756 128.167 79.5048C128.143 79.6316 128.078 79.7132 127.972 79.7497C127.866 79.7863 127.79 79.7365 127.743 79.6003C127.414 78.6474 127.114 78.0231 126.843 77.7274C126.822 77.7175 126.804 77.6899 126.789 77.6445C126.695 77.3723 127.104 76.8417 128.017 76.053C128.989 75.1928 130.028 74.5722 131.132 74.1913C132.735 73.6382 134.111 73.6036 135.26 74.0875C136.464 74.5859 137.33 75.599 137.857 77.1267L139.907 83.0709C140.116 83.6759 140.417 83.9106 140.81 83.7749C141.022 83.7019 141.248 83.5477 141.489 83.3124L141.534 83.2968C141.731 83.2289 141.928 83.4824 142.126 84.0572C142.194 84.2538 142.206 84.3852 142.161 84.4515ZM136.672 83.5525L135.388 79.8317L133.5 80.7622C131.664 81.8186 131.002 83.088 131.514 84.5703C132.087 86.234 133.1 86.8155 134.553 86.3146C135.188 86.0954 135.735 85.6444 136.193 84.9616C136.616 84.3247 136.776 83.855 136.672 83.5525ZM155.671 80.6286L155.626 80.6443C155.121 80.7507 154.672 80.8718 154.278 81.0075C153.9 81.1379 153.472 81.3195 152.994 81.5522L152.948 81.5678C152.767 81.6304 152.648 81.5785 152.59 81.4122C152.475 81.0794 152.261 80.3834 151.946 79.3241L150.207 74.1356C149.695 72.6533 149.179 71.672 148.658 71.1917C148.04 70.6264 147.209 70.5238 146.165 70.8838C145.394 71.1499 144.787 71.6976 144.346 72.527C143.874 73.3668 143.787 74.2178 144.084 75.08L145.344 78.7327C145.464 79.0806 145.613 79.4864 145.79 79.95L146.243 81.19C146.622 82.1424 146.898 82.8682 147.07 83.3673L147.086 83.4127C147.122 83.5185 147.08 83.5923 146.959 83.6341L146.868 83.6654C146.59 83.6936 146.164 83.8068 145.589 84.0051C144.939 84.2295 144.48 84.4215 144.214 84.5811L144.168 84.5968C144.002 84.6542 143.898 84.6224 143.856 84.5014L143.848 84.4787C143.728 84.1308 143.508 83.4197 143.188 82.3452L141.105 76.1585C140.959 75.735 140.8 75.2989 140.628 74.8504C140.508 74.5025 140.368 74.1194 140.206 73.7011C139.869 72.8698 139.627 72.2424 139.481 71.8188L139.473 71.7962C139.426 71.66 139.486 71.5633 139.652 71.5059L139.698 71.4902C139.748 71.4897 139.864 71.4581 140.046 71.3955C140.378 71.2807 141.108 70.8936 142.235 70.2342L142.28 70.2185C142.431 70.1663 142.533 70.2159 142.585 70.3671C142.716 70.7452 142.881 71.3482 143.082 72.1759C143.496 70.6283 144.618 69.5388 146.448 68.9075C149.625 67.8117 151.839 69.0789 153.091 72.7089L154.124 75.7037C154.25 76.0667 154.401 76.4801 154.578 76.9437L155.031 78.1838C155.42 79.1664 155.686 79.8619 155.827 80.2702C155.889 80.4518 155.837 80.5712 155.671 80.6286ZM170.295 55.9334C170.483 56.4779 170.448 57.0146 170.19 57.5436C169.953 58.0824 169.57 58.4431 169.04 58.6257C168.526 58.8031 168.002 58.7555 167.468 58.4828C166.959 58.2351 166.608 57.8314 166.415 57.2718C166.238 56.7575 166.273 56.2461 166.521 55.7375C166.778 55.2086 167.164 54.8555 167.678 54.678C168.193 54.5006 168.714 54.5407 169.243 54.7983C169.772 55.0559 170.123 55.4343 170.295 55.9334ZM175.808 73.6817L175.763 73.6973C175.485 73.7255 175.036 73.8466 174.416 74.0605C173.811 74.2693 173.375 74.4534 173.108 74.6131L173.063 74.6287C172.897 74.6861 172.79 74.6468 172.743 74.5106L171.174 69.5936L170.078 66.4173L168.344 61.76C168.297 61.6239 168.357 61.5271 168.524 61.4698L168.569 61.4541C168.62 61.4536 168.736 61.422 168.917 61.3594C169.25 61.2446 169.979 60.8575 171.106 60.198L171.151 60.1824C171.318 60.125 171.427 60.1719 171.479 60.3232C172.312 63.0317 172.846 64.7262 173.081 65.4068L174.161 68.5378C174.328 69.0218 174.934 70.6321 175.98 73.3687C176.032 73.52 175.975 73.6243 175.808 73.6817ZM189.952 68.2947C190.033 68.3343 190.087 68.3919 190.113 68.4675C190.171 68.6339 190.101 68.751 189.904 68.8189L188.656 69.1734C188.363 69.2575 188.119 69.3334 187.922 69.4012C187.347 69.5995 186.894 69.8066 186.562 70.0226L186.494 70.0461C186.343 70.0983 186.188 70.067 186.03 69.9523C185.071 69.2336 184.016 68.4806 182.864 67.6932C181.814 66.9553 180.642 66.1579 179.348 65.3011L179.049 65.7596L179.98 68.3836C180.011 68.4238 180.042 68.4892 180.073 68.58L181.198 71.6194C181.239 71.7404 181.185 71.827 181.033 71.8791L180.988 71.8948C180.71 71.923 180.276 72.0388 179.686 72.2423C179.127 72.4354 178.714 72.6118 178.447 72.7714L178.402 72.7871C178.235 72.8444 178.129 72.8051 178.082 72.669L177.1 69.5294C176.776 68.541 176.491 67.6914 176.246 66.9805L173.452 58.8809L171.429 53.3842C171.377 53.233 171.434 53.1287 171.6 53.0713L171.646 53.0556C171.696 53.0551 171.812 53.0235 171.994 52.9609C172.251 52.8722 172.943 52.4981 174.069 51.8387L174.115 51.823C174.266 51.7709 174.362 51.8053 174.404 51.9263L175.605 55.7011L178.4 63.8766C180.212 61.0342 181.443 58.7393 182.092 56.9919C182.166 56.814 182.256 56.7068 182.362 56.6703L182.634 56.5764C182.967 56.4616 183.68 56.148 184.773 55.6357L184.841 55.6122C185.022 55.5496 185.136 55.5864 185.183 55.7225C185.22 55.8284 185.201 55.9449 185.126 56.0722L182.057 60.8631L180.842 63.0086C185.472 65.8798 188.508 67.6418 189.952 68.2947ZM204.087 63.0883C203.78 63.7189 203.097 64.2169 202.038 64.5821C201.01 64.9369 200.155 64.7409 199.475 63.9941C198.872 65.3868 197.633 66.4067 195.757 67.0537C194.502 67.4868 193.406 67.5007 192.471 67.0956C191.541 66.7056 190.891 65.9736 190.52 64.8997C189.644 62.3587 190.914 60.1772 194.33 58.3554C194.959 58.0199 195.491 57.769 195.924 57.6025C196.03 57.566 196.141 57.5193 196.257 57.4625C196.347 57.4311 196.435 57.3923 196.521 57.3458C196.597 57.3198 196.67 57.2861 196.74 57.2449L196.914 57.1596C196.501 55.9647 196.053 55.1547 195.568 54.7297C194.965 54.2098 194.172 54.1194 193.189 54.4585C191.374 55.0847 190.342 56.3124 190.093 58.1416C190.069 58.2684 190.004 58.35 189.898 58.3865C189.792 58.423 189.716 58.3732 189.669 58.2371C189.34 57.2842 189.04 56.6599 188.769 56.3642C188.749 56.3543 188.731 56.3267 188.715 56.2813C188.621 56.009 189.031 55.4785 189.943 54.6898C190.916 53.8295 191.954 53.209 193.058 52.8281C194.662 52.275 196.038 52.2404 197.186 52.7243C198.391 53.2227 199.256 54.2358 199.783 55.7634L201.834 61.7077C202.043 62.3127 202.344 62.5474 202.737 62.4117C202.949 62.3386 203.175 62.1845 203.415 61.9492L203.461 61.9336C203.657 61.8657 203.855 62.1192 204.053 62.694C204.121 62.8906 204.132 63.022 204.087 63.0883ZM198.598 62.1893L197.314 58.4685L195.427 59.399C193.591 60.4554 192.929 61.7248 193.44 63.2071C194.014 64.8708 195.027 65.4523 196.479 64.9513C197.114 64.7322 197.661 64.2812 198.119 63.5984C198.543 62.9615 198.702 62.4918 198.598 62.1893Z" fill="black"/>
<path d="M170.746 75.4281L170.701 75.4438C170.423 75.472 170.004 75.5826 169.444 75.7757C168.9 75.9635 168.494 76.1372 168.228 76.2969L168.182 76.3125C168.016 76.3699 167.907 76.323 167.854 76.1718L167.346 74.697C166.589 76.3798 165.349 77.5186 163.624 78.1134C161.885 78.7135 160.295 78.644 158.856 77.9051C157.258 77.1021 156.092 75.6343 155.356 73.5016C154.683 71.5504 154.715 69.7285 155.451 68.0359C156.187 66.2927 157.5 65.0949 159.391 64.4427C160.979 63.8948 162.496 64.0232 163.941 64.8278L162.376 60.3661L161.096 56.9489C161.044 56.7976 161.093 56.6959 161.245 56.6437L161.29 56.6281C161.341 56.6275 161.457 56.596 161.638 56.5333C161.941 56.429 162.655 56.0471 163.782 55.3877L163.827 55.372C163.993 55.3146 164.103 55.3615 164.155 55.5128C164.643 57.223 165.276 59.2049 166.054 61.4586L168.848 69.5582C169.26 70.7531 169.95 72.6054 170.917 75.1151C170.969 75.2664 170.912 75.3707 170.746 75.4281ZM165.613 69.4553C165.196 68.2453 164.569 67.2854 163.731 66.5757C162.761 65.7256 161.716 65.4936 160.597 65.8798C158.086 66.7459 157.473 69.0394 158.756 72.7602C159.174 73.9703 159.801 74.9302 160.638 75.6399C161.629 76.4999 162.684 76.7368 163.803 76.3507C165.074 75.9124 165.825 74.9254 166.057 73.3899C166.241 72.1584 166.094 70.8469 165.613 69.4553Z" fill="white"/>
</svg>
