<svg width="248" height="33" viewBox="0 0 248 33" fill="none" xmlns="http://www.w3.org/2000/svg">
<path d="M213.3 20.7876H208.174L221.858 6.96465V12.5293L213.3 20.7876Z" fill="black" stroke="black"/>
<path d="M193.117 20.7876L213.553 0.5H218.817L199.304 20.7876H193.117Z" fill="black" stroke="black"/>
<path d="M177.423 20.7876L197.858 0.5H204.031L183.925 20.7876H177.423Z" fill="black" stroke="black"/>
<path d="M162.505 20.7876L182.941 0.5H188.912L168.698 20.7876H162.505Z" fill="black" stroke="black"/>
<path d="M147.276 20.7876L167.675 0.5H173.603L153.316 20.7876H147.276Z" fill="black" stroke="black"/>
<path d="M131.898 20.7876L152.408 0.5H158.525L138.089 20.7876H131.898Z" fill="black" stroke="black"/>
<path d="M123.65 4.4281L119.632 0.5H127.667L123.65 4.4281Z" fill="black" stroke="black"/>
<path d="M137.407 0.5H142.923L123.649 19.957L104.228 0.5H110.277L123.3 13.2535L123.645 13.5911L123.995 13.2585L137.407 0.5Z" fill="black" stroke="black"/>
<path d="M108.824 20.7876L88.6845 0.5H94.8908L115.178 20.7876H108.824Z" fill="black" stroke="black"/>
<path d="M94.3734 20.7876L74.2331 0.5H80.4394L100.727 20.7876H94.3734Z" fill="black" stroke="black"/>
<path d="M78.4465 20.7876L58.3063 0.5H64.5125L84.8001 20.7876H78.4465Z" fill="black" stroke="black"/>
<path d="M63.2181 20.7876L43.0788 0.5H49.2841L69.5726 20.7876H63.2181Z" fill="black" stroke="black"/>
<path d="M48.1462 20.7876L28.006 0.5H34.2122L54.4998 20.7876H48.1462Z" fill="black" stroke="black"/>
<path d="M25.0515 13.2324V6.792L39.1859 20.7876H32.6826L25.0515 13.2324Z" fill="black" stroke="black"/>
<path d="M246.41 31.9609C246.41 32.2587 246.169 32.5 245.871 32.5C245.573 32.5 245.332 32.2587 245.332 31.9609C245.332 31.6632 245.573 31.4219 245.871 31.4219C246.169 31.4219 246.41 31.6632 246.41 31.9609Z" fill="black" stroke="black"/>
<path d="M240.697 31.9609C240.697 32.2587 240.455 32.5 240.158 32.5C239.86 32.5 239.619 32.2587 239.619 31.9609C239.619 31.6632 239.86 31.4219 240.158 31.4219C240.455 31.4219 240.697 31.6632 240.697 31.9609Z" fill="black" stroke="black"/>
<path d="M234.982 31.9609C234.982 32.2587 234.741 32.5 234.443 32.5C234.146 32.5 233.904 32.2587 233.904 31.9609C233.904 31.6632 234.146 31.4219 234.443 31.4219C234.741 31.4219 234.982 31.6632 234.982 31.9609Z" fill="black" stroke="black"/>
<path d="M229.269 31.9609C229.269 32.2587 229.028 32.5 228.73 32.5C228.432 32.5 228.191 32.2587 228.191 31.9609C228.191 31.6632 228.432 31.4219 228.73 31.4219C229.028 31.4219 229.269 31.6632 229.269 31.9609Z" fill="black" stroke="black"/>
<path d="M212.676 31.9609C212.676 32.2587 212.435 32.5 212.137 32.5C211.839 32.5 211.598 32.2587 211.598 31.9609C211.598 31.6632 211.839 31.4219 212.137 31.4219C212.435 31.4219 212.676 31.6632 212.676 31.9609Z" fill="black" stroke="black"/>
<path d="M206.962 31.9609C206.962 32.2587 206.721 32.5 206.423 32.5C206.125 32.5 205.884 32.2587 205.884 31.9609C205.884 31.6632 206.125 31.4219 206.423 31.4219C206.721 31.4219 206.962 31.6632 206.962 31.9609Z" fill="black" stroke="black"/>
<path d="M201.249 31.9609C201.249 32.2587 201.007 32.5 200.709 32.5C200.412 32.5 200.17 32.2587 200.17 31.9609C200.17 31.6632 200.412 31.4219 200.709 31.4219C201.007 31.4219 201.249 31.6632 201.249 31.9609Z" fill="black" stroke="black"/>
<path d="M195.535 31.9609C195.535 32.2587 195.294 32.5 194.996 32.5C194.698 32.5 194.457 32.2587 194.457 31.9609C194.457 31.6632 194.698 31.4219 194.996 31.4219C195.294 31.4219 195.535 31.6632 195.535 31.9609Z" fill="black" stroke="black"/>
<path d="M179.156 31.9609C179.156 32.2587 178.915 32.5 178.617 32.5C178.319 32.5 178.078 32.2587 178.078 31.9609C178.078 31.6632 178.319 31.4219 178.617 31.4219C178.915 31.4219 179.156 31.6632 179.156 31.9609Z" fill="black" stroke="black"/>
<path d="M173.443 31.9609C173.443 32.2587 173.202 32.5 172.904 32.5C172.606 32.5 172.365 32.2587 172.365 31.9609C172.365 31.6632 172.606 31.4219 172.904 31.4219C173.202 31.4219 173.443 31.6632 173.443 31.9609Z" fill="black" stroke="black"/>
<path d="M167.73 31.9609C167.73 32.2587 167.488 32.5 167.19 32.5C166.893 32.5 166.651 32.2587 166.651 31.9609C166.651 31.6632 166.893 31.4219 167.19 31.4219C167.488 31.4219 167.73 31.6632 167.73 31.9609Z" fill="black" stroke="black"/>
<path d="M162.016 31.9609C162.016 32.2587 161.775 32.5 161.477 32.5C161.179 32.5 160.938 32.2587 160.938 31.9609C160.938 31.6632 161.179 31.4219 161.477 31.4219C161.775 31.4219 162.016 31.6632 162.016 31.9609Z" fill="black" stroke="black"/>
<path d="M125.765 31.9609C125.765 32.2587 125.524 32.5 125.226 32.5C124.928 32.5 124.687 32.2587 124.687 31.9609C124.687 31.6632 124.928 31.4219 125.226 31.4219C125.524 31.4219 125.765 31.6632 125.765 31.9609Z" fill="black" stroke="black"/>
<path d="M52.9829 31.9609C52.9829 32.2587 52.7416 32.5 52.4439 32.5C52.1461 32.5 51.9048 32.2587 51.9048 31.9609C51.9048 31.6632 52.1461 31.4219 52.4439 31.4219C52.7416 31.4219 52.9829 31.6632 52.9829 31.9609Z" fill="black" stroke="black"/>
<path d="M35.8861 31.9609C35.8861 32.2587 35.6448 32.5 35.347 32.5C35.0493 32.5 34.808 32.2587 34.808 31.9609C34.808 31.6632 35.0493 31.4219 35.347 31.4219C35.6448 31.4219 35.8861 31.6632 35.8861 31.9609Z" fill="black" stroke="black"/>
<path d="M18.7656 31.9609C18.7656 32.2587 18.5243 32.5 18.2266 32.5C17.9288 32.5 17.6875 32.2587 17.6875 31.9609C17.6875 31.6632 17.9289 31.4219 18.2266 31.4219C18.5243 31.4219 18.7656 31.6632 18.7656 31.9609Z" fill="black" stroke="black"/>
<path d="M217.11 32.5V31.4219H223.897V32.5H217.11Z" fill="black" stroke="black"/>
<path d="M183.235 32.5V31.4219H190.023V32.5H183.235Z" fill="black" stroke="black"/>
<path d="M149.672 32.5V31.4219H156.459V32.5H149.672Z" fill="black" stroke="black"/>
<path d="M112.992 32.5V31.4219H119.78V32.5H112.992Z" fill="black" stroke="black"/>
<path d="M102.434 32.5V31.4219H109.222V32.5H102.434Z" fill="black" stroke="black"/>
<path d="M91.1255 32.5V31.4219H97.9131V32.5H91.1255Z" fill="black" stroke="black"/>
<path d="M79.8168 32.5V31.4219H86.6044V32.5H79.8168Z" fill="black" stroke="black"/>
<path d="M57.6053 32.5V31.4219H64.3929V32.5H57.6053Z" fill="black" stroke="black"/>
<path d="M40.4948 32.5V31.4219H47.2823V32.5H40.4948Z" fill="black" stroke="black"/>
<path d="M23.4116 32.5V31.4219H30.1992V32.5H23.4116Z" fill="black" stroke="black"/>
<path d="M0.738674 24.7314H246.314C246.446 24.7314 246.553 24.8383 246.553 24.9701V26.9892C246.553 27.121 246.446 27.2278 246.314 27.2278H0.738674C0.606858 27.2278 0.5 27.121 0.5 26.9892V24.9701C0.5 24.8383 0.606858 24.7314 0.738674 24.7314Z" fill="black" stroke="black"/>
<path d="M1.12244 0.5H21.41V20.7876H1.12244V0.5Z" fill="black" stroke="black"/>
<path d="M225.5 0.5H245.788V20.7876H225.5V0.5Z" fill="black" stroke="black"/>
</svg>
