<svg width="2674" height="1812" viewBox="0 0 2674 1812" fill="none" xmlns="http://www.w3.org/2000/svg">
<path d="M266.078 51.3101H383.648L545.998 192.66V226.2L1223.41 796.38H1430.55L2124.75 211.83V183.08L2281.51 51.3101H2393.48V1H2460.66L2595.02 120.79V254.95L2410.27 398.69L2404.68 475.36L1430.55 1304.28H1357.77L1150.63 1117.41L1027.48 1122.16L47.7383 288.49V197.45L736.349 772.43L260.479 338.8L266.078 51.3101Z" fill="black" stroke="black" stroke-miterlimit="10"/>
<path d="M432.601 1197.64L260.48 1050.33V908.98L432.601 1053.31V1197.64Z" fill="black" stroke="black" stroke-miterlimit="10"/>
<path d="M450.851 1213.26L557.2 1304.28V1385.73L260.48 1632.49V1802.59H697.16L923.9 1606.14V1563.01L1035.86 1469.58V1210.84L364.051 633.47H260.48V883.82L455.03 1053.31L450.851 1213.26Z" fill="black" stroke="black" stroke-miterlimit="10"/>
<path d="M260.48 1600.15V1570.2L418.641 1433.64H450.83L260.48 1600.15Z" fill="black" stroke="black" stroke-miterlimit="10"/>
<path d="M848.32 513.69V571.18L1077.85 767.631V707.74L848.32 513.69Z" fill="black" stroke="black" stroke-miterlimit="10"/>
<path d="M1503.33 864.66C1520.84 879.65 1545.32 858.67 1616.7 797.58C1688.08 736.49 1699.28 724.51 1683.88 711.33C1668.48 698.15 1662.89 701.75 1585.91 767.63C1508.93 833.51 1485.84 849.68 1503.33 864.66Z" fill="black" stroke="black" stroke-miterlimit="10"/>
<path d="M1564.91 916.17L1737.06 765.24H1707.67" fill="black"/>
<path d="M1564.91 916.17L1737.06 765.24H1707.67" stroke="black" stroke-miterlimit="10"/>
<path d="M1571.91 607.121L1849.03 371.141L1871.43 391.51L1593.86 627.48L1571.91 607.121Z" fill="black" stroke="black" stroke-miterlimit="10"/>
<path d="M1665.4 527.511L1686.76 548.501" stroke="black" stroke-miterlimit="10"/>
<path d="M1757.48 449.101L1780.5 468.811" stroke="black" stroke-miterlimit="10"/>
<path d="M1914.11 1003.61L1891.02 983.851L2306.7 627.48H2401.18V888.621L2205.93 1048.53L2210.13 1221.02L2107.26 1304.28V1384.53L2401.18 1628.9V1803.19H1960.3L1731.47 1603.74V1558.82L1618.1 1465.39V1215.33L1657.99 1183.29H1708.37L1914.11 1003.61Z" fill="black" stroke="black" stroke-miterlimit="10"/>
<path d="M2401.18 906.591V1053.92L2224.83 1203.06V1054.82L2401.18 906.591Z" fill="black" stroke="black" stroke-miterlimit="10"/>
<path d="M1527.82 1438.44L1926.71 1788.81H1809.14L1527.82 1540.85V1438.44Z" fill="black" stroke="black" stroke-miterlimit="10"/>
<path d="M2224.83 1445.62L2401.18 1596.55V1567.8L2241.63 1438.43C2241.63 1438.43 2224.83 1429.45 2224.83 1445.62Z" fill="black" stroke="black" stroke-miterlimit="10"/>
<path d="M1271 1539.06H1394.16V1567.81L1332.58 1613.62L1271 1563.01V1539.06Z" fill="black" stroke="black" stroke-miterlimit="10"/>
<path d="M1271 1637.72H1394.16V1666.47L1332.58 1712.29L1271 1661.68V1637.72Z" fill="black" stroke="black" stroke-miterlimit="10"/>
<path d="M1271 1736.39H1394.16V1765.14L1332.58 1810.96L1271 1760.35V1736.39Z" fill="black" stroke="black" stroke-miterlimit="10"/>
<path d="M1250.71 746.67H1233.91V765.24H1250.71V746.67Z" fill="black" stroke="black" stroke-miterlimit="10"/>
<path d="M1242.31 740.38H1255.95V752.06H1269.6V725.11H1242.31V740.38Z" fill="black" stroke="black" stroke-miterlimit="10"/>
<path d="M1255.95 715.23H1280.09V733.2H1298.99V709.841H1287.44V700.851H1255.95V715.23Z" fill="black" stroke="black" stroke-miterlimit="10"/>
<path d="M1095.53 613.86H1078.73V632.43H1095.53V613.86Z" fill="black" stroke="black" stroke-miterlimit="10"/>
<path d="M1087.12 607.57H1100.77V619.25H1114.42V592.3H1087.12V607.57Z" fill="black" stroke="black" stroke-miterlimit="10"/>
<path d="M1100.77 582.41H1124.91V600.38H1143.81V577.02H1132.26V568.04H1100.77V582.41Z" fill="black" stroke="black" stroke-miterlimit="10"/>
<path d="M940.081 480.82H923.281V499.39H940.081V480.82Z" fill="black" stroke="black" stroke-miterlimit="10"/>
<path d="M931.68 474.531H945.329V486.211H958.97V459.261H931.68V474.531Z" fill="black" stroke="black" stroke-miterlimit="10"/>
<path d="M945.328 449.38H969.469V467.34H988.368V443.99H976.818V435H945.328V449.38Z" fill="black" stroke="black" stroke-miterlimit="10"/>
<path d="M787.831 350.521H771.031V369.091H787.831V350.521Z" fill="black" stroke="black" stroke-miterlimit="10"/>
<path d="M779.43 344.23H793.079V355.91H806.72V328.95H779.43V344.23Z" fill="black" stroke="black" stroke-miterlimit="10"/>
<path d="M793.078 319.07H817.219V337.04H836.108V313.68H824.568V304.7H793.078V319.07Z" fill="black" stroke="black" stroke-miterlimit="10"/>
<path d="M635.151 219.841H618.352V238.411H635.151V219.841Z" fill="black" stroke="black" stroke-miterlimit="10"/>
<path d="M626.738 213.551H640.389V225.23H654.028V198.271H626.738V213.551Z" fill="black" stroke="black" stroke-miterlimit="10"/>
<path d="M640.391 188.391H664.53V206.361H683.431V183H671.88V174.021H640.391V188.391Z" fill="black" stroke="black" stroke-miterlimit="10"/>
<path d="M482.68 89.3408H465.879V107.911H482.68V89.3408Z" fill="black" stroke="black" stroke-miterlimit="10"/>
<path d="M474.27 83.0603H487.919V94.7302H501.569V67.7803H474.27V83.0603Z" fill="black" stroke="black" stroke-miterlimit="10"/>
<path d="M487.918 57.9004H512.059V75.8704H530.958V52.5103H519.408V43.5303H487.918V57.9004Z" fill="black" stroke="black" stroke-miterlimit="10"/>
<path d="M31.8203 932.391L1 957.98L15.5605 969.93C22.4905 963.88 61.3008 932.391 61.3008 932.391C61.3008 932.391 22.4905 900.901 15.5605 894.851L1 906.801L31.8203 932.391Z" fill="black" stroke="black" stroke-linejoin="round"/>
<path d="M2641.74 932.391L2672.56 957.98L2658 969.93C2651.07 963.88 2612.26 932.391 2612.26 932.391C2612.26 932.391 2651.07 900.901 2658 894.851L2672.56 906.801L2641.74 932.391Z" fill="black" stroke="black" stroke-linejoin="round"/>
<path d="M453.289 1119.8L771.029 1385.73H1035.86" fill="black"/>
<path d="M453.289 1119.8L771.029 1385.73H1035.86" stroke="black" stroke-miterlimit="10"/>
<path d="M420.21 1712.29H392.051V1736.39H420.21V1712.29Z" fill="black" stroke="black" stroke-miterlimit="10"/>
<path d="M823.117 1098.24H859.508V1127.59" fill="black"/>
<path d="M823.117 1098.24H859.508V1127.59" stroke="black" stroke-miterlimit="10"/>
<path d="M2306.7 627.48V960.841" stroke="black" stroke-miterlimit="10"/>
<path d="M2273.11 1704.36H2243.72V1729.52H2273.11V1704.36Z" fill="black" stroke="black" stroke-miterlimit="10"/>
<path d="M2012.79 1729.51C2025.54 1729.51 2035.88 1720.66 2035.88 1709.75C2035.88 1698.84 2025.54 1689.99 2012.79 1689.99C2000.04 1689.99 1989.7 1698.84 1989.7 1709.75C1989.7 1720.66 2000.04 1729.51 2012.79 1729.51Z" fill="black" stroke="black" stroke-miterlimit="10"/>
</svg>
