<svg width="1366" height="504" viewBox="0 0 1366 504" fill="none" xmlns="http://www.w3.org/2000/svg">
<g filter="url(#filter0_f_1_725)">
<path d="M-12.9221 83.2334H151.541L178.486 112.039L86.4972 204.956L-0.843665 118.544L-2.70033 108.322C-2.70033 108.322 -8.74124 97.6361 -12.9221 93.4552C-17.103 89.2743 -12.9221 83.2334 -12.9221 83.2334Z" fill="black" stroke="black" stroke-miterlimit="10"/>
<path d="M14.9563 297.87C14.9563 297.87 193.822 118.076 198.003 113.895C202.184 109.715 188.713 102.745 184.065 98.1002C179.42 93.4551 184.993 83.2334 190.57 83.2334H372.688C379.193 83.2334 385.695 98.1002 389.412 101.817C393.128 105.534 208.457 286.024 202.184 292.297C195.911 298.57 190.57 293.225 178.491 293.225H114.379L102.301 305.304H14.9563V297.87Z" fill="black" stroke="black" stroke-miterlimit="10"/>
<path d="M307.644 246.765H450.735L583.608 114.824L554.803 83.2334H434.012C434.012 83.2334 295.565 221.68 290.92 226.325C286.275 230.97 293.709 235.615 295.565 237.475C297.422 239.332 307.644 246.765 307.644 246.765Z" fill="black" stroke="black" stroke-miterlimit="10"/>
<path d="M634.713 83.2334C634.713 83.2334 434.475 280.683 429.366 285.792C424.257 290.901 416.359 305.304 440.516 305.304H592.901L772.231 123.185V111.107C772.231 111.107 788.955 96.2402 790.815 91.5951C792.671 86.9501 791.743 83.2334 786.17 83.2334H634.713Z" fill="black" stroke="black" stroke-miterlimit="10"/>
<path d="M741.564 169.645C741.564 169.645 795.455 117.612 800.103 112.967C804.748 108.322 808.465 115.755 808.465 130.622V152.922C808.465 156.639 786.165 172.434 782.448 176.15C778.731 179.867 743.424 176.15 741.564 176.15C739.704 176.15 741.564 169.645 741.564 169.645Z" fill="black" stroke="black" stroke-miterlimit="10"/>
<path d="M727.63 184.512C727.63 184.512 653.296 258.846 647.723 264.42C642.149 269.993 645.866 276.498 655.156 276.498H812.186C819.62 276.498 860.967 228.645 865.148 224.464C869.329 220.283 865.148 212.386 865.148 212.386C865.148 212.386 881.64 199.144 886.52 194.266C891.397 189.389 889.309 184.509 881.875 184.509H727.634L727.63 184.512Z" fill="black" stroke="black" stroke-miterlimit="10"/>
<path d="M816.829 83.2333H986.87L1009.17 111.591V129.69L1045.41 162.212V170.574H899.529L889.156 160.352L874.44 159.424C874.44 159.424 827.983 103.674 821.478 97.1685C814.973 90.6634 809.864 83.23 816.833 83.23L816.829 83.2333Z" fill="black" stroke="black" stroke-miterlimit="10"/>
<path d="M905.1 183.581H1061.67C1061.67 183.581 1141.57 263.488 1145.52 267.437C1149.47 271.386 1146.68 273.71 1139.25 273.71H972.462L922.288 222.605V212.847C922.288 212.847 909.513 195.888 905.097 191.475C900.684 187.062 901.844 183.578 905.097 183.578L905.1 183.581Z" fill="black" stroke="black" stroke-miterlimit="10"/>
<path d="M1005.45 83.2334H1164.8C1164.8 83.2334 1362.25 283.471 1367.36 288.58C1372.47 293.69 1371.08 302.055 1365.51 302.055H1201.04L1024.76 124.117V111.574L1005.45 93.9193V83.2334Z" fill="black" stroke="black" stroke-miterlimit="10"/>
<path d="M1219.16 118.54C1219.16 118.54 1299.77 198.68 1303.25 202.164C1306.74 205.649 1310.45 203.325 1314.86 198.912C1319.28 194.499 1392.92 120.861 1395.94 117.84C1398.96 114.82 1400.12 111.799 1393.38 105.066C1386.64 98.3285 1371.04 82.7251 1371.04 82.7251H1211.73C1204.3 82.7251 1201.27 90.8951 1208.01 97.6323C1214.75 104.369 1220.55 110.175 1220.55 110.175L1219.16 118.537L1219.16 118.54Z" fill="black" stroke="black" stroke-miterlimit="10"/>
<path d="M80.9275 396.361V335.966L334.592 95.3119L363.397 87.8784V59.0731C363.397 59.0731 342.957 37.7012 338.308 32.1279C333.663 26.5545 347.598 11.6877 351.315 9.82763C355.032 7.97096 597.546 9.82763 604.051 9.82763C610.556 9.82763 615.201 20.0494 617.989 22.8344C620.778 25.6228 617.989 65.5749 617.989 65.5749C617.989 65.5749 198.469 486.955 194.289 491.136C190.108 495.317 181.746 497.177 175.705 491.136C169.664 485.095 80.9308 396.361 80.9308 396.361H80.9275Z" stroke="black" stroke-miterlimit="10"/>
<path d="M416.354 334.109L662.584 98.0995L696.035 91.5945C696.035 91.5945 704.396 73.011 700.68 63.7209C696.963 54.4308 672.806 42.349 672.806 29.3422C672.806 16.3354 680.239 9.00293 691.39 9.00293H942.265L954.344 24.6972V63.7209C954.344 63.7209 540.397 477.667 531.107 486.958C521.817 496.248 513.22 493.695 506.483 486.958C499.746 480.22 416.354 393.576 416.354 393.576V334.109Z" stroke="black" stroke-miterlimit="10"/>
<path d="M740.741 336.894V394.501C740.741 394.501 825.656 480.45 832.626 487.419C839.595 494.388 850.281 493.924 868.864 475.34C887.448 456.757 1258.65 86.4824 1270.27 74.8681C1281.88 63.2538 1277.7 60.9296 1277.7 49.7795C1277.7 38.6294 1278.43 21.9059 1278.43 21.9059L1267.48 9H1009.58C1009.58 9 1001.27 20.51 997.089 24.6943C992.908 28.8785 995.232 33.9843 1000.81 38.6327C1006.38 43.2778 1024.76 59.0729 1024.76 59.0729V94.3799H985.011L740.741 336.894Z" stroke="black" stroke-miterlimit="10"/>
<path d="M188.011 476.736C193.272 476.736 197.537 472.471 197.537 467.211C197.537 461.95 193.272 457.685 188.011 457.685C182.751 457.685 178.486 461.95 178.486 467.211C178.486 472.471 182.751 476.736 188.011 476.736Z" fill="black" stroke="black" stroke-miterlimit="10"/>
</g>
<defs>
<filter id="filter0_f_1_725" x="-23.2798" y="0.5" width="1430.12" height="503.001" filterUnits="userSpaceOnUse" color-interpolation-filters="sRGB">
<feFlood flood-opacity="0" result="BackgroundImageFix"/>
<feBlend mode="normal" in="SourceGraphic" in2="BackgroundImageFix" result="shape"/>
<feGaussianBlur stdDeviation="4" result="effect1_foregroundBlur_1_725"/>
</filter>
</defs>
</svg>
