<svg width="888" height="307" viewBox="0 0 888 307" fill="none" xmlns="http://www.w3.org/2000/svg">
<path d="M2.1647 47.5195H105.229L122.114 65.5709L64.4676 123.799L9.73387 69.6474L8.57036 63.2417C8.57036 63.2417 4.78472 56.5452 2.1647 53.9252C-0.455322 51.3052 2.1647 47.5195 2.1647 47.5195Z" fill="black" stroke="black" stroke-miterlimit="10"/>
<path d="M19.6345 182.026C19.6345 182.026 131.724 69.3544 134.344 66.7344C136.964 64.1144 128.522 59.747 125.609 56.8361C122.698 53.9252 126.191 47.5195 129.686 47.5195H243.814C247.89 47.5195 251.965 56.8361 254.294 59.1652C256.623 61.4943 140.895 174.602 136.964 178.533C133.033 182.464 129.686 179.115 122.117 179.115H81.9396L74.3704 186.684H19.6345V182.026Z" fill="black" stroke="black" stroke-miterlimit="10"/>
<path d="M203.052 150H292.723L375.991 67.3162L357.939 47.5195H282.243C282.243 47.5195 195.483 134.279 192.572 137.19C189.661 140.101 194.32 143.012 195.483 144.178C196.647 145.341 203.052 150 203.052 150Z" fill="black" stroke="black" stroke-miterlimit="10"/>
<path d="M408.017 47.5195C408.017 47.5195 282.534 171.255 279.332 174.457C276.13 177.658 271.181 186.684 286.32 186.684H381.814L494.195 72.5562V64.987C494.195 64.987 504.675 55.6705 505.84 52.7596C507.004 49.8487 506.422 47.5195 502.93 47.5195H408.017Z" fill="black" stroke="black" stroke-miterlimit="10"/>
<path d="M474.978 101.671C474.978 101.671 508.749 69.0634 511.662 66.1525C514.573 63.2416 516.902 67.8999 516.902 77.2165V91.1913C516.902 93.5205 502.927 103.419 500.598 105.748C498.269 108.077 476.143 105.748 474.978 105.748C473.812 105.748 474.978 101.671 474.978 101.671Z" fill="black" stroke="black" stroke-miterlimit="10"/>
<path d="M466.245 110.988C466.245 110.988 419.662 157.571 416.169 161.063C412.676 164.556 415.006 168.633 420.827 168.633H519.233C523.891 168.633 549.803 138.645 552.423 136.025C555.043 133.405 552.423 128.455 552.423 128.455C552.423 128.455 562.757 120.157 565.816 117.101C568.872 114.044 567.563 110.986 562.905 110.986H466.247L466.245 110.988Z" fill="black" stroke="black" stroke-miterlimit="10"/>
<path d="M522.144 47.5197H628.702L642.677 65.2907V76.6329L665.387 97.0134V102.253H573.969L567.468 95.8477L558.246 95.266C558.246 95.266 529.133 60.3289 525.057 56.2524C520.98 52.1759 517.778 47.5176 522.146 47.5176L522.144 47.5197Z" fill="black" stroke="black" stroke-miterlimit="10"/>
<path d="M577.46 110.404H675.575C675.575 110.404 725.65 160.48 728.125 162.955C730.6 165.429 728.852 166.886 724.194 166.886H619.673L588.231 134.859V128.745C588.231 128.745 580.226 118.117 577.458 115.351C574.693 112.586 575.42 110.402 577.458 110.402L577.46 110.404Z" fill="black" stroke="black" stroke-miterlimit="10"/>
<path d="M640.347 47.5195H740.209C740.209 47.5195 863.944 173.002 867.146 176.204C870.348 179.406 869.475 184.648 865.982 184.648H762.918L652.45 73.1401V65.28L640.347 54.2161V47.5195Z" fill="black" stroke="black" stroke-miterlimit="10"/>
<path d="M774.271 69.6452C774.271 69.6452 824.785 119.866 826.968 122.05C829.152 124.234 831.481 122.777 834.247 120.012C837.012 117.246 883.159 71.0996 885.051 69.2068C886.944 67.314 887.671 65.4212 883.449 61.2013C879.227 56.9794 869.449 47.2012 869.449 47.2012H769.615C764.956 47.2012 763.063 52.3211 767.285 56.543C771.507 60.765 775.145 64.4031 775.145 64.4031L774.273 69.6431L774.271 69.6452Z" fill="black" stroke="black" stroke-miterlimit="10"/>
<path d="M60.9771 243.747V205.899L219.94 55.0888L237.992 50.4305V32.3792C237.992 32.3792 225.182 18.9861 222.269 15.4934C219.359 12.0008 228.091 2.68421 230.42 1.51858C232.75 0.355067 384.725 1.51858 388.802 1.51858C392.878 1.51858 395.789 7.92426 397.537 9.66953C399.284 11.4169 397.537 36.4536 397.537 36.4536C397.537 36.4536 134.637 300.519 132.017 303.139C129.397 305.759 124.157 306.925 120.371 303.139C116.586 299.353 60.9792 243.747 60.9792 243.747H60.9771Z" stroke="black" stroke-miterlimit="10"/>
<path d="M271.178 204.735L425.483 56.8359L446.446 52.7595C446.446 52.7595 451.686 41.1138 449.357 35.292C447.027 29.4702 431.889 21.8989 431.889 13.7479C431.889 5.59699 436.547 1.00195 443.535 1.00195H600.751L608.32 10.837V35.292C608.32 35.292 348.913 294.699 343.091 300.521C337.269 306.343 331.882 304.743 327.66 300.521C323.438 296.299 271.178 242.002 271.178 242.002V204.735Z" stroke="black" stroke-miterlimit="10"/>
<path d="M474.462 206.481V242.581C474.462 242.581 527.676 296.442 532.043 300.81C536.41 305.177 543.107 304.886 554.753 293.241C566.398 281.595 799.019 49.5557 806.298 42.2774C813.576 34.9991 810.956 33.5426 810.956 26.5552C810.956 19.5678 811.416 9.0877 811.416 9.0877L804.55 1H642.938C642.938 1 637.727 8.21296 635.107 10.8351C632.487 13.4572 633.943 16.6569 637.436 19.5699C640.929 22.4808 652.45 32.3791 652.45 32.3791V54.5049H627.538L474.462 206.481Z" stroke="black" stroke-miterlimit="10"/>
<path d="M128.083 294.115C131.38 294.115 134.052 291.443 134.052 288.146C134.052 284.849 131.38 282.177 128.083 282.177C124.786 282.177 122.114 284.849 122.114 288.146C122.114 291.443 124.786 294.115 128.083 294.115Z" fill="black" stroke="black" stroke-miterlimit="10"/>
</svg>
