<svg width="563" height="129" viewBox="0 0 563 129" fill="none" xmlns="http://www.w3.org/2000/svg">
<path d="M541 56.5L413.5 88.5V63L13 115L35.5 27.5L459.5 9L448 41L541 56.5Z" fill="white"/>
<path fill-rule="evenodd" clip-rule="evenodd" d="M407 102.5L402.5 70L0 129L26.5 16.5L471 0L464 32.5L562.5 56.5L407 102.5ZM413.5 88.5L541 56.5L448 41L459.5 9L35.5 27.5L13 115L413.5 63V88.5Z" fill="#0A0808" fill-opacity="0.69"/>
<path d="M59.2572 54.4148L59.2592 54.4467C59.2655 54.5532 59.2208 54.6093 59.125 54.615L59.093 54.6169C58.3539 54.5864 57.1698 54.6199 55.5407 54.7174L54.6942 54.7681L55.1589 62.5302C55.2188 63.5311 55.3291 64.8388 55.4899 66.4534L55.4918 66.4854C55.4976 66.5812 55.4632 66.6313 55.3886 66.6358L55.3407 66.6387C54.9442 66.6197 54.5649 66.621 54.2029 66.6427C53.7238 66.6713 53.3424 66.7262 53.0587 66.8073L53.0108 66.8102C52.9256 66.8153 52.8798 66.7646 52.8735 66.6581L52.8706 66.6102C52.8064 64.4662 52.7596 63.1493 52.7303 62.6595L52.2665 54.9134L51.4201 54.9641C49.791 55.0616 48.6113 55.1696 47.8811 55.2881L47.8492 55.2901C47.7533 55.2958 47.7022 55.2454 47.6959 55.1389L47.6939 55.107C47.7074 54.7963 47.7119 54.6037 47.7074 54.5292C47.703 54.4546 47.6771 54.2906 47.6299 54.0369L47.627 53.989C47.6213 53.8932 47.6717 53.8421 47.7781 53.8357L47.842 53.8319C48.5599 53.8637 49.8398 53.8245 51.6818 53.7142L55.1317 53.5077C56.9737 53.3974 58.2492 53.2837 58.9581 53.1664L59.022 53.1626C59.1285 53.1562 59.1846 53.2009 59.1903 53.2968L59.1932 53.3447C59.1765 53.6021 59.1704 53.7681 59.1749 53.8427C59.1794 53.9172 59.2068 54.1079 59.2572 54.4148ZM68.7736 61.4106L62.6565 61.7768C62.7202 62.8416 63.0052 63.674 63.5113 64.2742C64.0512 64.9044 64.7737 65.1924 65.6788 65.1382C66.2431 65.1044 66.8013 64.8787 67.3533 64.4609C67.854 64.0783 68.2024 63.6514 68.3986 63.1802C68.4161 63.115 68.4781 63.0792 68.5846 63.0729C68.6591 63.0684 68.6989 63.1088 68.704 63.1939C68.7403 63.8009 68.8257 64.2446 68.96 64.525L68.9619 64.557C68.9734 64.7486 68.6436 65.0409 67.9725 65.4337C67.2088 65.8854 66.4437 66.1343 65.677 66.1802C64.0799 66.2758 62.814 65.9241 61.8792 65.1252C60.967 64.3463 60.4682 63.2435 60.3828 61.8167C60.2987 60.4113 60.6341 59.2318 61.3892 58.2783C62.1742 57.2909 63.2695 56.7552 64.675 56.671C65.974 56.5933 67.0032 56.9164 67.7624 57.6403C68.5549 58.3836 68.9977 59.5325 69.0908 61.0871C69.1016 61.2681 68.9959 61.3759 68.7736 61.4106ZM66.7974 60.2626C66.6878 58.4312 65.9994 57.5535 64.7324 57.6293C64.0083 57.6727 63.4478 58.0375 63.0508 58.7238C62.7025 59.3323 62.5523 60.0359 62.6001 60.8345L66.3534 60.6098C66.6622 60.5913 66.8102 60.4756 66.7974 60.2626ZM72.8749 65.605L72.827 65.6079C72.4511 65.5769 72.1141 65.5704 71.816 65.5883C71.5392 65.6048 71.2267 65.6503 70.8785 65.7245L70.8306 65.7274C70.7454 65.7325 70.6987 65.6658 70.6904 65.5274C70.6693 65.176 70.6477 64.5469 70.6255 63.6399C70.6102 62.8501 70.5857 62.173 70.5519 61.6087L70.1944 55.6354L69.8515 52.0495C69.8432 51.911 69.8869 51.839 69.9828 51.8332L70.0147 51.8313C70.0579 51.8394 70.1168 51.8412 70.1914 51.8368L70.4309 51.8224C70.761 51.8027 71.2633 51.7138 71.9377 51.5559L71.9856 51.553C72.0708 51.5479 72.1162 51.5933 72.122 51.6891L72.1249 51.737C72.1624 52.8995 72.2216 54.1569 72.3026 55.5092L72.6602 61.4825L72.8116 63.477C72.8971 64.3695 72.9513 65.0074 72.9743 65.3907C72.9826 65.5291 72.9494 65.6005 72.8749 65.605ZM76.7898 65.3706L76.7419 65.3735C76.366 65.3426 76.029 65.336 75.7309 65.3539C75.454 65.3705 75.1415 65.4159 74.7934 65.4902L74.7454 65.493C74.6603 65.4981 74.6135 65.4315 74.6052 65.2931C74.5842 64.9417 74.5626 64.3125 74.5403 63.4056C74.5251 62.6157 74.5006 61.9386 74.4668 61.3743L74.1092 55.401L73.7663 51.8151C73.758 51.6767 73.8018 51.6046 73.8976 51.5989L73.9296 51.5969C73.9728 51.605 74.0317 51.6069 74.1062 51.6024L74.3458 51.5881C74.6759 51.5683 75.1781 51.4795 75.8526 51.3215L75.9005 51.3187C75.9857 51.3136 76.0311 51.3589 76.0368 51.4548L76.0397 51.5027C76.0773 52.6652 76.1365 53.9226 76.2174 55.2748L76.575 61.2481L76.7265 63.2426C76.812 64.1351 76.8662 64.773 76.8891 65.1563C76.8974 65.2947 76.8643 65.3662 76.7898 65.3706ZM97.3397 64.1244L97.3077 64.1263C97.0816 64.0971 96.7662 64.0946 96.3616 64.1188C95.9783 64.1418 95.6654 64.1819 95.4231 64.2391L95.3911 64.2411C95.2634 64.2487 95.196 64.194 95.189 64.0768C95.1775 63.8852 95.1701 63.6719 95.1667 63.437L95.1228 61.9009L94.9629 58.9612C94.8469 57.0233 94.2352 56.0876 93.1278 56.1538C92.5954 56.1857 92.1563 56.4364 91.8104 56.9059C91.4845 57.3529 91.3391 57.8691 91.3742 58.4548L91.5291 61.0421L91.8021 64.2636C91.8097 64.3913 91.755 64.4587 91.6379 64.4657L91.6059 64.4677C91.3798 64.4384 91.0644 64.436 90.6598 64.4602C90.2765 64.4831 89.9636 64.5232 89.7213 64.5805L89.6894 64.5824C89.5616 64.59 89.4942 64.5353 89.4872 64.4182C89.4751 64.2159 89.4673 63.9973 89.4639 63.7624L89.4455 63.1865C89.4287 62.728 89.4203 62.4079 89.4201 62.2263L89.2611 59.3025C89.1451 57.3647 88.544 56.4283 87.458 56.4933C86.9788 56.522 86.567 56.7817 86.2223 57.2725C85.8984 57.7514 85.7539 58.2836 85.789 58.8693L85.9391 61.3768L86.23 64.6292C86.2363 64.7357 86.181 64.7924 86.0638 64.7994L86.0319 64.8013C85.8483 64.7696 85.533 64.7671 85.0858 64.7939C84.6492 64.82 84.3311 64.8604 84.1313 64.9151L84.0994 64.917C83.9716 64.9247 83.9045 64.8753 83.8981 64.7688L83.798 61.4889L83.6373 58.8057C83.6137 58.4118 83.5232 57.4341 83.3656 55.8727C83.3592 55.7662 83.4199 55.7092 83.5477 55.7015L83.5796 55.6996C83.6015 55.709 83.6391 55.7121 83.6924 55.7089L83.8361 55.7003C84.113 55.6837 84.6459 55.5717 85.4349 55.3642L85.4668 55.3622C85.5733 55.3559 85.6297 55.4059 85.6361 55.5124C85.6489 55.7253 85.6571 56.1309 85.6609 56.7291C86.1623 55.8228 86.94 55.3382 87.9941 55.2751C89.2612 55.1992 90.1981 55.6774 90.8049 56.7097C91.5504 55.5965 92.5034 55.0051 93.664 54.9356C94.6755 54.8751 95.4775 55.153 96.0701 55.7693C96.6852 56.4057 97.0294 57.3361 97.1028 58.5606L97.2309 60.7008L97.5039 63.9222C97.5115 64.05 97.4568 64.1174 97.3397 64.1244ZM106.784 59.1351L100.667 59.5013C100.73 60.5661 101.015 61.3986 101.521 61.9987C102.061 62.6289 102.784 62.9169 103.689 62.8627C104.253 62.829 104.811 62.6032 105.363 62.1855C105.864 61.8029 106.213 61.3759 106.409 60.9047C106.426 60.8395 106.488 60.8038 106.595 60.7974C106.669 60.7929 106.709 60.8333 106.714 60.9185C106.75 61.5254 106.836 61.9691 106.97 62.2496L106.972 62.2815C106.983 62.4732 106.654 62.7654 105.983 63.1582C105.219 63.61 104.454 63.8588 103.687 63.9047C102.09 64.0003 100.824 63.6487 99.8893 62.8498C98.9771 62.0709 98.4783 60.9681 98.3929 59.5413C98.3088 58.1358 98.6442 56.9563 99.3993 56.0028C100.184 55.0155 101.28 54.4797 102.685 54.3956C103.984 54.3178 105.013 54.6409 105.773 55.3648C106.565 56.1081 107.008 57.257 107.101 58.8116C107.112 58.9926 107.006 59.1005 106.784 59.1351ZM104.808 57.9872C104.698 56.1558 104.01 55.278 102.742 55.3539C102.018 55.3972 101.458 55.762 101.061 56.4483C100.713 57.0569 100.562 57.7604 100.61 58.559L104.363 58.3343C104.672 58.3158 104.82 58.2001 104.808 57.9872ZM115.919 50.606C115.942 50.9893 115.824 51.3276 115.563 51.621C115.314 51.9245 115.004 52.0873 114.631 52.1096C114.269 52.1313 113.941 52.0067 113.647 51.7358C113.365 51.4855 113.212 51.1634 113.188 50.7695C113.167 50.4074 113.281 50.0854 113.531 49.8032C113.791 49.5098 114.103 49.3523 114.465 49.3306C114.827 49.3089 115.154 49.4282 115.448 49.6885C115.741 49.9488 115.898 50.2546 115.919 50.606ZM116.276 62.9908L116.244 62.9927C116.061 62.9609 115.751 62.9581 115.314 62.9843C114.888 63.0098 114.575 63.0499 114.376 63.1046L114.344 63.1065C114.226 63.1135 114.165 63.0691 114.159 62.9732L114.034 59.5346L113.9 57.2986L113.622 53.9973C113.616 53.9015 113.672 53.8501 113.789 53.843L113.821 53.8411C113.854 53.8499 113.934 53.8504 114.062 53.8428C114.296 53.8287 114.834 53.7111 115.675 53.4897L115.707 53.4878C115.824 53.4808 115.886 53.5305 115.892 53.637C115.941 55.5254 115.98 56.7092 116.009 57.1884L116.141 59.3924C116.161 59.7332 116.262 60.8759 116.442 62.8205C116.449 62.927 116.393 62.9838 116.276 62.9908ZM126.135 62.4006L126.103 62.4025C125.76 62.3803 125.45 62.3775 125.173 62.394C124.907 62.41 124.6 62.4498 124.251 62.5134L124.219 62.5153C124.091 62.5229 124.024 62.4682 124.017 62.3511C124.003 62.1168 123.99 61.6314 123.978 60.8948L123.791 57.2514C123.729 56.208 123.574 55.4853 123.325 55.0834C123.03 54.6096 122.514 54.3946 121.78 54.4386C121.237 54.4711 120.749 54.714 120.317 55.1673C119.863 55.6219 119.654 56.1527 119.691 56.7596L119.845 59.331C119.859 59.5759 119.882 59.863 119.912 60.1925L119.981 61.07C120.054 61.7495 120.1 62.2649 120.121 62.6163L120.123 62.6483C120.128 62.7228 120.088 62.7626 120.002 62.7677L119.938 62.7715C119.755 62.7398 119.461 62.736 119.056 62.7602C118.598 62.7876 118.27 62.8287 118.07 62.8834L118.038 62.8853C117.921 62.8923 117.86 62.8532 117.855 62.7681L117.854 62.7521C117.839 62.5072 117.825 62.0111 117.813 61.2639L117.584 56.9177C117.567 56.6196 117.543 56.3111 117.513 55.9924C117.498 55.7475 117.477 55.4763 117.448 55.1788C117.381 54.5844 117.338 54.1382 117.32 53.84L117.319 53.8241C117.313 53.7282 117.369 53.6768 117.486 53.6698L117.518 53.6679C117.551 53.6766 117.631 53.6772 117.759 53.6695C117.993 53.6555 118.531 53.5378 119.372 53.3165L119.404 53.3145C119.511 53.3082 119.567 53.3582 119.574 53.4647C119.59 53.7309 119.588 54.1477 119.568 54.7152C120.112 53.7958 121.028 53.2975 122.316 53.2204C124.552 53.0865 125.746 54.2973 125.899 56.8527L126.026 58.961C126.041 59.2165 126.064 59.509 126.094 59.8384L126.163 60.7159C126.237 61.4167 126.282 61.9109 126.3 62.1984C126.307 62.3262 126.252 62.3935 126.135 62.4006ZM142.331 61.431L142.299 61.4329C142.116 61.4011 141.827 61.3971 141.433 61.4206C141.05 61.4436 140.758 61.4824 140.558 61.5371L140.526 61.539C140.409 61.546 140.348 61.4963 140.341 61.3898L140.279 60.3517C139.491 61.2965 138.491 61.8052 137.277 61.8778C136.052 61.9511 135.044 61.6215 134.252 60.8888C133.371 60.0867 132.885 58.935 132.795 57.4337C132.713 56.0602 133.06 54.896 133.836 53.9412C134.622 52.9539 135.68 52.4204 137.011 52.3407C138.129 52.2738 139.079 52.6282 139.863 53.4041L139.659 50.2587L139.45 47.8349C139.443 47.7284 139.493 47.672 139.6 47.6656L139.632 47.6637C139.664 47.6724 139.744 47.673 139.872 47.6653C140.085 47.6526 140.612 47.5355 141.454 47.3142L141.486 47.3123C141.603 47.3053 141.665 47.355 141.671 47.4615C141.678 48.6472 141.729 50.0333 141.824 51.6198L142.165 57.3216C142.216 58.1627 142.326 59.4758 142.497 61.2608C142.504 61.3672 142.448 61.424 142.331 61.431ZM140.107 56.6754C140.056 55.8236 139.825 55.0947 139.415 54.4888C138.945 53.769 138.315 53.4327 137.528 53.4798C135.76 53.5857 134.955 54.9482 135.111 57.5675C135.162 58.4193 135.393 59.1482 135.803 59.7541C136.285 60.4839 136.92 60.8253 137.708 60.7781C138.602 60.7246 139.262 60.2256 139.686 59.2812C140.025 58.5236 140.166 57.655 140.107 56.6754ZM151.828 56.4386L145.711 56.8048C145.775 57.8695 146.06 58.702 146.566 59.3021C147.106 59.9323 147.828 60.2203 148.733 60.1662C149.298 60.1324 149.856 59.9066 150.408 59.4889C150.908 59.1063 151.257 58.6794 151.453 58.2081C151.471 58.143 151.533 58.1072 151.639 58.1008C151.714 58.0964 151.753 58.1367 151.758 58.2219C151.795 58.8288 151.88 59.2725 152.014 59.553L152.016 59.5849C152.028 59.7766 151.698 60.0688 151.027 60.4616C150.263 60.9134 149.498 61.1622 148.731 61.2081C147.134 61.3037 145.868 60.9521 144.934 60.1532C144.021 59.3743 143.523 58.2715 143.437 56.8447C143.353 55.4392 143.689 54.2597 144.444 53.3062C145.229 52.3189 146.324 51.7832 147.729 51.699C149.028 51.6212 150.058 51.9443 150.817 52.6682C151.609 53.4116 152.052 54.5605 152.145 56.115C152.156 56.296 152.05 56.4039 151.828 56.4386ZM149.852 55.2906C149.742 53.4592 149.054 52.5814 147.787 52.6573C147.063 52.7006 146.502 53.0655 146.105 53.7517C145.757 54.3603 145.607 55.0639 145.655 55.8624L149.408 55.6378C149.717 55.6193 149.865 55.5036 149.852 55.2906ZM159.278 60.0799C158.681 60.4576 157.999 60.6693 157.233 60.7152C156.434 60.763 155.838 60.6277 155.445 60.3093C155.04 59.9596 154.812 59.3748 154.763 58.555L154.402 52.5178L152.951 52.6527C152.834 52.6597 152.773 52.6206 152.768 52.5354C152.765 52.4822 152.768 52.4446 152.777 52.4227C152.803 52.3249 152.813 52.2175 152.806 52.1004C152.798 51.9726 152.775 51.8564 152.737 51.7519C152.726 51.7419 152.718 51.7102 152.715 51.657C152.71 51.5718 152.766 51.5257 152.883 51.5187L154.339 51.4636L154.131 49.0718C154.124 48.9546 154.179 48.8926 154.296 48.8856C154.882 48.8505 155.477 48.6119 156.081 48.1696L156.112 48.1518C156.272 48.1422 156.355 48.2013 156.363 48.3291L156.418 50.3134C156.419 50.5163 156.429 50.8577 156.447 51.3374L158.537 51.1802C158.676 51.172 158.748 51.2157 158.753 51.3116L158.747 51.7447L158.804 52.158C158.81 52.2539 158.743 52.3059 158.605 52.3142L156.51 52.3916L156.872 58.4447C156.912 59.1049 157.278 59.4142 157.97 59.3728C158.289 59.3537 158.643 59.2791 159.03 59.149L159.062 59.1471C159.243 59.1363 159.346 59.3385 159.371 59.7537C159.381 59.9241 159.35 60.0328 159.278 60.0799ZM169.119 59.2984C168.808 59.6483 168.281 59.8455 167.535 59.8901C166.811 59.9334 166.298 59.6543 165.995 59.0527C165.358 59.8388 164.379 60.2714 163.059 60.3504C162.175 60.4033 161.469 60.2158 160.941 59.788C160.414 59.3707 160.128 58.7841 160.083 58.0281C159.976 56.2393 161.182 55.0664 163.703 54.5095C164.167 54.4069 164.553 54.3411 164.861 54.3119C164.936 54.3075 165.015 54.2974 165.1 54.2816C165.164 54.2778 165.227 54.2686 165.291 54.2542C165.344 54.251 165.397 54.2425 165.449 54.2286L165.576 54.205C165.526 53.3639 165.383 52.7633 165.148 52.4034C164.854 51.9615 164.361 51.7612 163.669 51.8027C162.391 51.8792 161.509 52.4823 161.021 53.6122C160.982 53.6893 160.926 53.73 160.852 53.7345C160.777 53.739 160.737 53.6933 160.731 53.5975C160.691 52.9267 160.61 52.472 160.489 52.2335C160.478 52.2235 160.471 52.2025 160.469 52.1705C160.458 51.9789 160.816 51.7117 161.543 51.3689C162.322 50.991 163.1 50.7788 163.878 50.7323C165.006 50.6647 165.896 50.8893 166.547 51.406C167.23 51.9421 167.605 52.7479 167.669 53.8233L167.92 58.0078C167.945 58.4337 168.096 58.6383 168.373 58.6218C168.522 58.6128 168.695 58.5544 168.891 58.4465L168.923 58.4446C169.062 58.4363 169.143 58.6344 169.167 59.039C169.176 59.1775 169.159 59.2639 169.119 59.2984ZM165.755 57.7366L165.599 55.1173L164.22 55.3762C162.851 55.7252 162.199 56.4215 162.261 57.4649C162.331 58.6362 162.877 59.1912 163.899 59.13C164.347 59.1032 164.779 58.9118 165.195 58.5555C165.582 58.2225 165.768 57.9496 165.755 57.7366ZM172.053 47.2455C172.076 47.6288 171.958 47.9672 171.697 48.2606C171.448 48.564 171.138 48.7269 170.765 48.7492C170.403 48.7709 170.075 48.6462 169.781 48.3753C169.499 48.1251 169.346 47.803 169.322 47.409C169.3 47.047 169.415 46.7249 169.665 46.4428C169.925 46.1494 170.236 45.9918 170.598 45.9702C170.96 45.9485 171.288 46.0678 171.582 46.3281C171.875 46.5883 172.032 46.8941 172.053 47.2455ZM172.41 59.6303L172.378 59.6322C172.195 59.6005 171.884 59.5977 171.448 59.6238C171.022 59.6493 170.709 59.6894 170.509 59.7441L170.477 59.746C170.36 59.753 170.299 59.7086 170.293 59.6128L170.167 56.1742L170.034 53.9382L169.756 50.6369C169.75 50.541 169.806 50.4896 169.923 50.4826L169.955 50.4807C169.987 50.4894 170.068 50.49 170.195 50.4823C170.43 50.4683 170.968 50.3506 171.809 50.1293L171.841 50.1273C171.958 50.1203 172.02 50.1701 172.026 50.2765C172.075 52.165 172.114 53.3488 172.143 53.8279L172.275 56.032C172.295 56.3727 172.396 57.5154 172.576 59.4601C172.583 59.5666 172.527 59.6233 172.41 59.6303ZM176.393 59.4079L176.345 59.4108C175.969 59.3799 175.632 59.3733 175.334 59.3912C175.057 59.4078 174.744 59.4532 174.396 59.5275L174.348 59.5303C174.263 59.5354 174.216 59.4688 174.208 59.3303C174.187 58.979 174.165 58.3498 174.143 57.4428C174.128 56.653 174.104 55.9759 174.07 55.4116L173.712 49.4383L173.369 45.8524C173.361 45.714 173.405 45.6419 173.501 45.6362L173.533 45.6342C173.576 45.6423 173.635 45.6442 173.709 45.6397L173.949 45.6254C174.279 45.6056 174.781 45.5168 175.455 45.3588L175.503 45.356C175.589 45.3509 175.634 45.3962 175.64 45.4921L175.643 45.54C175.68 46.7025 175.739 47.9598 175.82 49.3121L176.178 55.2854L176.329 57.2799C176.415 58.1724 176.469 58.8103 176.492 59.1936C176.5 59.332 176.467 59.4035 176.393 59.4079ZM192.327 57.909C192.017 58.2589 191.489 58.4561 190.744 58.5007C190.02 58.5441 189.506 58.2649 189.203 57.6633C188.566 58.4494 187.588 58.882 186.267 58.9611C185.384 59.014 184.678 58.8265 184.15 58.3986C183.623 57.9813 183.336 57.3947 183.291 56.6388C183.184 54.85 184.391 53.6771 186.911 53.1201C187.375 53.0175 187.762 52.9517 188.07 52.9226C188.144 52.9181 188.224 52.908 188.308 52.8922C188.372 52.8884 188.436 52.8793 188.499 52.8648C188.552 52.8616 188.605 52.8531 188.658 52.8393L188.785 52.8156C188.734 51.9745 188.591 51.3739 188.356 51.014C188.063 50.5721 187.57 50.3719 186.878 50.4133C185.6 50.4898 184.717 51.093 184.229 52.2228C184.191 52.2999 184.135 52.3407 184.06 52.3451C183.985 52.3496 183.945 52.3039 183.94 52.2081C183.899 51.5373 183.819 51.0826 183.698 50.8441C183.686 50.8341 183.68 50.8131 183.678 50.7812C183.666 50.5895 184.024 50.3223 184.752 49.9796C185.531 49.6017 186.309 49.3895 187.086 49.3429C188.215 49.2754 189.104 49.4999 189.755 50.0167C190.439 50.5527 190.813 51.3585 190.877 52.4339L191.128 56.6184C191.153 57.0443 191.305 57.249 191.581 57.2324C191.731 57.2235 191.903 57.165 192.1 57.0571L192.132 57.0552C192.27 57.0469 192.352 57.2451 192.376 57.6497C192.384 57.7881 192.368 57.8746 192.327 57.909ZM188.964 56.3472L188.807 53.7279L187.428 53.9868C186.06 54.3359 185.407 55.0321 185.469 56.0756C185.54 57.2468 186.086 57.8018 187.108 57.7406C187.555 57.7139 187.987 57.5224 188.404 57.1662C188.79 56.8332 188.977 56.5602 188.964 56.3472ZM202.376 53.0439C202.456 54.3855 202.131 55.5483 201.399 56.5325C200.617 57.5837 199.524 58.1514 198.119 58.2356C197.341 58.2821 196.496 58.0014 195.584 57.3935L195.655 58.0464C195.663 58.1849 195.614 58.2573 195.508 58.2636L195.476 58.2655C195.216 58.217 194.911 58.2032 194.56 58.2242C194.272 58.2414 193.997 58.2846 193.734 58.3538C193.713 58.3657 193.671 58.3736 193.607 58.3774C193.522 58.3825 193.475 58.3105 193.466 58.1615L193.39 55.8258L193.311 54.2277L192.865 47.0575L192.657 44.6496C192.651 44.5432 192.695 44.4871 192.791 44.4813L193.112 44.4782C193.303 44.4667 193.82 44.3503 194.661 44.1289L194.693 44.127C194.811 44.12 194.872 44.1697 194.879 44.2762C194.958 46.6758 195.01 48.0725 195.033 48.4665L195.152 50.4469C195.92 49.3537 196.89 48.7721 198.061 48.702C199.381 48.6229 200.438 49.0512 201.231 49.9868C201.92 50.7897 202.302 51.8087 202.376 53.0439ZM200.102 53.0838C200.051 52.2213 199.836 51.4915 199.458 50.8944C199.02 50.1833 198.407 49.8513 197.62 49.8985C195.895 50.0017 195.11 51.3577 195.266 53.9664C195.317 54.8182 195.537 55.5477 195.926 56.1548C196.408 56.8847 197.038 57.2263 197.815 57.1798C198.709 57.1263 199.353 56.6283 199.745 55.6858C200.042 54.9307 200.161 54.0634 200.102 53.0838ZM213.061 52.5805C213.142 53.9328 212.789 55.0759 212 56.01C211.161 56.9899 210.013 57.5235 208.554 57.6109C207.106 57.6975 205.907 57.3045 204.957 56.4317C204.051 55.5776 203.558 54.4851 203.478 53.1542C203.398 51.8126 203.757 50.6638 204.554 49.7077C205.393 48.7278 206.537 48.1946 207.985 48.1079C209.444 48.0205 210.648 48.4133 211.598 49.2861C212.492 50.1195 212.98 51.2176 213.061 52.5805ZM210.712 52.6891L210.707 52.6093C210.559 50.139 209.697 48.9511 208.121 49.0454C207.301 49.0945 206.699 49.4725 206.314 50.1794C205.948 50.8532 205.79 51.7869 205.84 52.9807C205.992 55.5149 206.866 56.7341 208.464 56.6385C209.273 56.5901 209.87 56.2124 210.255 55.5054C210.631 54.8204 210.783 53.8816 210.712 52.6891ZM222.681 56.6209L222.649 56.6228C222.465 56.591 222.155 56.5882 221.719 56.6144C221.293 56.6399 220.991 56.6793 220.812 56.7327L220.78 56.7347C220.674 56.741 220.617 56.691 220.611 56.5845C220.596 56.329 220.591 55.9873 220.598 55.5595C220.054 56.4789 219.139 56.9772 217.85 57.0543C215.614 57.1882 214.42 55.9827 214.268 53.4379L214.107 50.7547L213.867 48.0923C213.86 47.9645 213.915 47.8971 214.032 47.8901L214.336 47.8879C214.4 47.8841 214.922 47.7727 215.903 47.5537L215.935 47.5518C216.063 47.5441 216.13 47.5989 216.137 47.716L216.18 49.5086L216.373 52.9914C216.435 54.0348 216.59 54.7522 216.838 55.1434C217.134 55.6172 217.649 55.8322 218.383 55.7882C218.926 55.7557 219.414 55.5128 219.847 55.0595C220.3 54.5942 220.508 54.0688 220.473 53.4832L220.292 50.4486L220.095 48.2324C220.072 48.0307 220.056 47.8447 220.046 47.6744L220.044 47.6424C220.039 47.5679 220.08 47.5281 220.165 47.523L220.229 47.5192C220.261 47.5279 220.341 47.5284 220.469 47.5208C220.522 47.5176 221.061 47.4052 222.084 47.1837L222.116 47.1818C222.244 47.1741 222.31 47.2182 222.316 47.314L222.4 50.3224L222.577 53.2771C222.624 54.065 222.719 55.1226 222.863 56.4497C222.869 56.5562 222.809 56.6132 222.681 56.6209ZM229.949 55.8492C229.351 56.2269 228.67 56.4387 227.903 56.4846C227.104 56.5324 226.509 56.3971 226.115 56.0787C225.71 55.7289 225.483 55.1442 225.433 54.3243L225.072 48.2871L223.621 48.422C223.504 48.429 223.443 48.3899 223.438 48.3048C223.435 48.2515 223.438 48.2139 223.447 48.192C223.474 48.0943 223.483 47.9868 223.476 47.8697C223.469 47.7419 223.446 47.6258 223.407 47.5212C223.396 47.5112 223.389 47.4796 223.386 47.4263C223.38 47.3412 223.436 47.2951 223.554 47.288L225.009 47.233L224.802 44.8411C224.795 44.724 224.85 44.6619 224.967 44.6549C225.552 44.6198 226.147 44.3812 226.751 43.939L226.782 43.9211C226.942 43.9115 227.026 43.9706 227.033 44.0984L227.088 46.0827C227.089 46.2856 227.099 46.627 227.117 47.1068L229.207 46.9496C229.346 46.9413 229.418 46.9851 229.424 47.0809L229.418 47.514L229.474 47.9274C229.48 48.0232 229.414 48.0753 229.275 48.0835L227.18 48.1609L227.543 54.214C227.582 54.8742 227.948 55.1836 228.64 55.1421C228.959 55.123 229.313 55.0484 229.701 54.9184L229.733 54.9164C229.914 54.9056 230.016 55.1078 230.041 55.5231C230.052 55.6934 230.021 55.8021 229.949 55.8492ZM242.286 55.1106C241.689 55.4883 241.007 55.7001 240.24 55.746C239.442 55.7938 238.846 55.6585 238.453 55.3401C238.047 54.9904 237.82 54.4056 237.771 53.5857L237.409 47.5485L235.959 47.6834C235.842 47.6905 235.781 47.6514 235.775 47.5662C235.772 47.513 235.775 47.4754 235.785 47.4534C235.811 47.3557 235.821 47.2483 235.814 47.1311C235.806 47.0034 235.783 46.8872 235.745 46.7826C235.733 46.7726 235.726 46.741 235.723 46.6878C235.718 46.6026 235.774 46.5565 235.891 46.5495L237.346 46.4944L237.139 44.1025C237.132 43.9854 237.187 43.9233 237.304 43.9163C237.89 43.8813 238.484 43.6426 239.088 43.2004L239.119 43.1825C239.279 43.173 239.363 43.2321 239.371 43.3598L239.425 45.3441C239.427 45.5471 239.436 45.8884 239.454 46.3682L241.545 46.211C241.683 46.2027 241.755 46.2465 241.761 46.3423L241.755 46.7755L241.812 47.1888C241.817 47.2846 241.751 47.3367 241.613 47.345L239.518 47.4223L239.88 53.4755C239.919 54.1356 240.285 54.445 240.977 54.4036C241.297 54.3844 241.65 54.3098 242.038 54.1798L242.07 54.1779C242.251 54.167 242.354 54.3692 242.379 54.7845C242.389 54.9549 242.358 55.0636 242.286 55.1106ZM251.479 51.2744L251.764 54.7035C251.771 54.8206 251.716 54.8827 251.599 54.8897L251.583 54.8907C251.357 54.8615 251.047 54.8586 250.653 54.8822C250.27 54.9052 249.957 54.9453 249.714 55.0025L249.682 55.0044C249.565 55.0114 249.504 54.9617 249.497 54.8552L249.371 51.4006L249.271 49.7396C249.209 48.6961 249.053 47.9735 248.805 47.5716C248.51 47.1084 247.99 46.8991 247.244 46.9437C246.723 46.975 246.24 47.2122 245.796 47.6555C245.344 48.1314 245.135 48.6622 245.17 49.2478L245.314 51.6435L245.6 55.0885C245.607 55.195 245.551 55.2518 245.434 55.2588L245.402 55.2607C245.219 55.2289 244.908 55.2261 244.472 55.2522C244.035 55.2784 243.728 55.3182 243.549 55.3716L243.517 55.3735C243.39 55.3811 243.323 55.3317 243.316 55.2253L243.19 51.7707L242.819 45.5737L242.504 41.6655C242.498 41.5591 242.559 41.502 242.687 41.4943L242.719 41.4924C242.751 41.5012 242.831 41.5017 242.959 41.4941C243.215 41.4788 243.747 41.3614 244.557 41.142L244.589 41.14C244.706 41.133 244.768 41.1828 244.774 41.2892L244.863 43.8485L245.048 47.2034C245.549 46.2972 246.46 45.8045 247.781 45.7255C250.017 45.5916 251.211 46.7971 251.363 49.3419L251.479 51.2744ZM261.288 49.8857L255.171 50.2519C255.235 51.3167 255.52 52.1492 256.026 52.7493C256.566 53.3795 257.288 53.6675 258.194 53.6133C258.758 53.5796 259.316 53.3538 259.868 52.9361C260.369 52.5535 260.717 52.1265 260.913 51.6553C260.931 51.5902 260.993 51.5544 261.099 51.548C261.174 51.5436 261.214 51.5839 261.219 51.6691C261.255 52.276 261.34 52.7197 261.475 53.0002L261.477 53.0321C261.488 53.2238 261.158 53.516 260.487 53.9088C259.724 54.3606 258.958 54.6094 258.192 54.6553C256.595 54.7509 255.329 54.3993 254.394 53.6004C253.482 52.8215 252.983 51.7187 252.898 50.2919C252.813 48.8864 253.149 47.7069 253.904 46.7534C254.689 45.7661 255.784 45.2303 257.19 45.1462C258.489 45.0684 259.518 45.3915 260.277 46.1154C261.07 46.8587 261.512 48.0077 261.606 49.5622C261.616 49.7432 261.511 49.8511 261.288 49.8857ZM259.312 48.7378C259.203 46.9064 258.514 46.0286 257.247 46.1045C256.523 46.1478 255.963 46.5126 255.565 47.1989C255.217 47.8075 255.067 48.5111 255.115 49.3096L258.868 49.0849C259.177 49.0665 259.325 48.9507 259.312 48.7378ZM275.992 50.8328C276.039 51.6207 275.79 52.2661 275.243 52.769C274.594 53.3635 273.583 53.7018 272.21 53.7841C271.081 53.8516 269.896 53.5914 268.653 53.0032C268.566 52.9764 268.519 52.9097 268.513 52.8032L268.526 52.7544C268.628 52.4918 268.66 52.0464 268.622 51.4182C268.617 51.3331 268.657 51.2879 268.742 51.2828C268.838 51.2771 268.904 51.3105 268.941 51.3831C269.566 52.3715 270.539 52.8262 271.859 52.7472C272.402 52.7147 272.863 52.5588 273.242 52.2797C273.641 51.978 273.826 51.6036 273.8 51.1564C273.779 50.8156 273.575 50.534 273.188 50.3114C272.823 50.0982 272.186 49.9066 271.278 49.7365C269.364 49.3489 268.367 48.5002 268.289 47.1906C268.247 46.4985 268.447 45.9042 268.887 45.4076C269.477 44.7312 270.432 44.3534 271.753 44.2744C272.849 44.2087 273.904 44.4128 274.915 44.8865C275.002 44.9134 275.049 44.98 275.055 45.0865L275.043 45.1513C274.941 45.4139 274.908 45.8433 274.944 46.4396C274.949 46.5247 274.914 46.5696 274.84 46.574C274.744 46.5798 274.672 46.5466 274.625 46.4747C274.435 46.1548 274.108 45.8698 273.645 45.6197C273.104 45.3422 272.547 45.2206 271.972 45.255C271.386 45.2901 270.935 45.4346 270.619 45.6886C270.282 45.9439 270.124 46.2579 270.147 46.6306C270.172 47.0458 270.393 47.3531 270.811 47.5525C270.965 47.6181 271.448 47.7495 272.261 47.9466C273.507 48.2246 274.391 48.5457 274.915 48.9097C275.584 49.3612 275.943 50.0022 275.992 50.8328ZM285.648 52.5308C285.693 52.5708 285.717 52.6175 285.72 52.6707C285.728 52.7878 285.662 52.8505 285.523 52.8588L284.658 52.8625C284.455 52.864 284.284 52.8689 284.146 52.8772C283.741 52.9014 283.413 52.9531 283.162 53.0323L283.114 53.0351C283.007 53.0415 282.913 52.9937 282.833 52.8917C282.346 52.2583 281.803 51.5855 281.205 50.8733C280.663 50.2112 280.054 49.489 279.376 48.7067L279.102 48.9476L279.229 50.7993C279.242 50.8306 279.25 50.8782 279.254 50.9421L279.431 53.0953C279.436 53.1805 279.385 53.2263 279.279 53.2327L279.247 53.2346C279.063 53.2028 278.764 53.1994 278.348 53.2242C277.954 53.2478 277.658 53.287 277.458 53.3417L277.426 53.3436C277.309 53.3506 277.247 53.3062 277.242 53.2104L277.174 51.0184C277.144 50.3257 277.113 49.7291 277.083 49.2287L276.742 43.5269L276.429 39.6347C276.423 39.5282 276.478 39.4714 276.595 39.4644L276.627 39.4625C276.66 39.4713 276.74 39.4718 276.867 39.4641C277.048 39.4533 277.56 39.3372 278.401 39.1159L278.433 39.1139C278.54 39.1076 278.596 39.147 278.601 39.2322L278.695 41.8713L279.023 47.6219C280.696 46.1219 281.898 44.8692 282.629 43.8637C282.708 43.7628 282.785 43.7101 282.86 43.7056L283.051 43.6942C283.286 43.6801 283.799 43.6066 284.593 43.4737L284.641 43.4708C284.769 43.4631 284.835 43.5072 284.841 43.6031C284.846 43.6776 284.812 43.749 284.742 43.8174L281.912 46.343L280.747 47.5027C283.204 50.1766 284.838 51.8526 285.648 52.5308ZM288.673 40.2641C288.696 40.6474 288.577 40.9858 288.317 41.2792C288.068 41.5826 287.757 41.7455 287.384 41.7678C287.022 41.7895 286.694 41.6649 286.4 41.3939C286.118 41.1437 285.965 40.8216 285.942 40.4276C285.92 40.0656 286.034 39.7435 286.284 39.4614C286.545 39.168 286.856 39.0105 287.218 38.9888C287.58 38.9671 287.908 39.0864 288.201 39.3467C288.494 39.6069 288.652 39.9128 288.673 40.2641ZM289.029 52.6489L288.997 52.6509C288.814 52.6191 288.504 52.6163 288.067 52.6424C287.641 52.6679 287.329 52.708 287.129 52.7627L287.097 52.7646C286.98 52.7716 286.918 52.7272 286.913 52.6314L286.787 49.1928L286.653 46.9568L286.375 43.6555C286.369 43.5596 286.425 43.5082 286.542 43.5012L286.574 43.4993C286.607 43.508 286.687 43.5086 286.815 43.5009C287.049 43.4869 287.587 43.3692 288.429 43.1479L288.46 43.146C288.578 43.1389 288.639 43.1887 288.646 43.2951C288.695 45.1836 288.733 46.3674 288.762 46.8465L288.894 49.0506C288.914 49.3913 289.015 50.534 289.195 52.4787C289.202 52.5852 289.146 52.6419 289.029 52.6489ZM293.012 52.4265L292.964 52.4294C292.588 52.3985 292.251 52.3919 291.953 52.4098C291.676 52.4264 291.364 52.4718 291.016 52.5461L290.968 52.5489C290.883 52.554 290.836 52.4874 290.828 52.349C290.806 51.9976 290.785 51.3684 290.763 50.4615C290.747 49.6716 290.723 48.9945 290.689 48.4302L290.332 42.4569L289.989 38.871C289.98 38.7326 290.024 38.6605 290.12 38.6548L290.152 38.6528C290.195 38.6609 290.254 38.6628 290.329 38.6583L290.568 38.644C290.898 38.6242 291.4 38.5354 292.075 38.3774L292.123 38.3746C292.208 38.3695 292.253 38.4148 292.259 38.5107L292.262 38.5586C292.3 39.7211 292.359 40.9785 292.44 42.3307L292.797 48.304L292.949 50.2985C293.034 51.191 293.088 51.8289 293.111 52.2122C293.12 52.3506 293.087 52.4221 293.012 52.4265ZM296.927 52.1922L296.879 52.1951C296.503 52.1641 296.166 52.1576 295.868 52.1754C295.591 52.192 295.279 52.2374 294.93 52.3117L294.883 52.3146C294.797 52.3197 294.751 52.253 294.742 52.1146C294.721 51.7632 294.7 51.1341 294.677 50.2271C294.662 49.4373 294.638 48.7602 294.604 48.1959L294.246 42.2225L293.903 38.6366C293.895 38.4982 293.939 38.4261 294.035 38.4204L294.067 38.4185C294.11 38.4266 294.169 38.4284 294.243 38.4239L294.483 38.4096C294.813 38.3898 295.315 38.301 295.99 38.1431L296.038 38.1402C296.123 38.1351 296.168 38.1805 296.174 38.2763L296.177 38.3242C296.214 39.4867 296.274 40.7441 296.355 42.0963L296.712 48.0696L296.864 50.0642C296.949 50.9566 297.003 51.5945 297.026 51.9779C297.035 52.1163 297.001 52.1877 296.927 52.1922ZM305.861 49.0447C305.908 49.8326 305.658 50.478 305.111 50.981C304.463 51.5754 303.452 51.9138 302.078 51.996C300.95 52.0636 299.764 51.8033 298.521 51.2152C298.434 51.1883 298.387 51.1217 298.381 51.0152L298.394 50.9663C298.496 50.7038 298.528 50.2584 298.49 49.6302C298.485 49.545 298.525 49.4998 298.611 49.4947C298.706 49.489 298.773 49.5225 298.809 49.5951C299.434 50.5835 300.407 51.0381 301.728 50.9591C302.271 50.9266 302.732 50.7708 303.11 50.4916C303.509 50.1899 303.695 49.8155 303.668 49.3683C303.648 49.0276 303.444 48.7459 303.057 48.5233C302.691 48.3101 302.055 48.1185 301.147 47.9484C299.232 47.5608 298.236 46.7122 298.157 45.4025C298.116 44.7104 298.315 44.1161 298.756 43.6196C299.346 42.9431 300.301 42.5654 301.621 42.4863C302.718 42.4207 303.772 42.6247 304.783 43.0984C304.871 43.1253 304.917 43.1919 304.924 43.2984L304.911 43.3633C304.81 43.6258 304.777 44.0552 304.812 44.6515C304.817 44.7367 304.783 44.7815 304.708 44.786C304.612 44.7917 304.541 44.7586 304.494 44.6866C304.304 44.3667 303.977 44.0817 303.513 43.8317C302.973 43.5541 302.415 43.4326 301.84 43.467C301.255 43.502 300.804 43.6466 300.488 43.9006C300.15 44.1559 299.993 44.4698 300.015 44.8425C300.04 45.2578 300.261 45.5651 300.679 45.7645C300.833 45.8301 301.316 45.9614 302.13 46.1585C303.375 46.4366 304.26 46.7576 304.784 47.1216C305.452 47.5732 305.811 48.2142 305.861 49.0447ZM320.505 44.209L319.77 45.8558C318.896 48.0346 318.275 49.4502 317.908 50.1027C317.185 51.4175 315.695 52.1425 313.438 52.2777L313.087 52.2987C312.97 52.3057 312.892 52.2569 312.854 52.1524C312.683 51.4466 312.552 51.0377 312.46 50.9257L312.423 50.8478C312.416 50.7307 312.482 50.6679 312.62 50.6597L312.636 50.6587C313.306 50.7789 313.854 50.8262 314.279 50.8007C315.461 50.73 316.233 50.4113 316.594 49.8447C313.527 45.3693 311.974 42.8122 311.936 42.1734C311.931 42.0882 311.987 42.0421 312.104 42.0351L312.344 42.0367C312.685 42.0163 313.287 41.9001 314.151 41.6882L314.183 41.6862C314.246 41.6824 314.302 41.7112 314.348 41.7725C315.279 43.5761 316.404 45.4963 317.722 47.5332C318.178 46.4052 318.59 45.3334 318.956 44.3177C319.306 43.3671 319.616 42.483 319.888 41.6653C319.926 41.5882 319.971 41.5481 320.025 41.5449L320.072 41.542C320.105 41.5508 320.185 41.5513 320.313 41.5437C320.537 41.5303 320.922 41.4591 321.47 41.3301L321.534 41.3263C321.619 41.3212 321.665 41.3612 321.67 41.4464L321.645 41.5761L321.126 42.8093C320.92 43.2918 320.713 43.7584 320.505 44.209ZM332.41 45.4357C332.491 46.788 332.137 47.9311 331.349 48.8652C330.51 49.8451 329.361 50.3787 327.903 50.4661C326.455 50.5527 325.256 50.1597 324.306 49.2869C323.4 48.4328 322.907 47.3403 322.827 46.0094C322.747 44.6678 323.106 43.519 323.903 42.5629C324.742 41.583 325.886 41.0498 327.334 40.9631C328.792 40.8757 329.997 41.2685 330.947 42.1413C331.841 42.9747 332.328 44.0728 332.41 45.4357ZM330.06 45.5443L330.056 45.4645C329.908 42.9942 329.046 41.8063 327.47 41.9006C326.65 41.9497 326.048 42.3277 325.663 43.0346C325.297 43.7084 325.139 44.6421 325.189 45.8359C325.341 48.3701 326.215 49.5893 327.812 49.4937C328.622 49.4453 329.219 49.0676 329.604 48.3606C329.98 47.6756 330.132 46.7369 330.06 45.5443ZM342.03 49.4761L341.998 49.478C341.814 49.4462 341.504 49.4434 341.068 49.4696C340.642 49.4951 340.34 49.5345 340.161 49.588L340.129 49.5899C340.023 49.5962 339.966 49.5462 339.96 49.4397C339.945 49.1842 339.94 48.8425 339.947 48.4147C339.403 49.3341 338.487 49.8324 337.199 49.9095C334.963 50.0434 333.769 48.8379 333.616 46.2932L333.456 43.61L333.216 40.9475C333.209 40.8197 333.263 40.7523 333.381 40.7453L333.685 40.7431C333.749 40.7393 334.271 40.6279 335.252 40.4089L335.284 40.407C335.411 40.3994 335.479 40.4541 335.486 40.5712L335.529 42.3638L335.722 45.8466C335.784 46.89 335.939 47.6074 336.187 47.9986C336.482 48.4724 336.998 48.6874 337.732 48.6434C338.275 48.6109 338.763 48.368 339.195 47.9147C339.648 47.4494 339.857 46.924 339.822 46.3384L339.641 43.3038L339.444 41.0876C339.421 40.886 339.405 40.6999 339.394 40.5296L339.392 40.4976C339.388 40.4231 339.428 40.3833 339.514 40.3782L339.577 40.3744C339.61 40.3831 339.69 40.3836 339.818 40.376C339.871 40.3728 340.409 40.2604 341.433 40.0389L341.465 40.037C341.592 40.0293 341.659 40.0734 341.665 40.1693L341.749 43.1776L341.926 46.1323C341.973 46.9202 342.068 47.9778 342.212 49.3049C342.218 49.4114 342.157 49.4684 342.03 49.4761ZM357.32 44.9382L357.606 48.3673C357.613 48.4844 357.558 48.5465 357.441 48.5535L357.425 48.5545C357.199 48.5253 356.889 48.5224 356.495 48.546C356.111 48.569 355.798 48.6091 355.556 48.6663L355.524 48.6682C355.407 48.6753 355.345 48.6255 355.339 48.519L355.212 45.0644L355.113 43.4034C355.05 42.3599 354.895 41.6373 354.646 41.2354C354.352 40.7722 353.831 40.5629 353.086 40.6075C352.564 40.6388 352.082 40.876 351.638 41.3193C351.186 41.7952 350.977 42.326 351.012 42.9116L351.156 45.3073L351.442 48.7523C351.448 48.8588 351.393 48.9156 351.276 48.9226L351.244 48.9245C351.06 48.8927 350.75 48.8899 350.314 48.9161C349.877 48.9422 349.57 48.982 349.391 49.0354L349.359 49.0373C349.231 49.045 349.164 48.9955 349.158 48.8891L349.031 45.4345L348.66 39.2376L348.346 35.3293C348.34 35.2229 348.401 35.1658 348.528 35.1582L348.56 35.1562C348.593 35.165 348.673 35.1655 348.801 35.1579C349.056 35.1426 349.589 35.0252 350.399 34.8058L350.431 34.8038C350.548 34.7968 350.609 34.8466 350.616 34.953L350.705 37.5123L350.89 40.8672C351.391 39.961 352.302 39.4684 353.622 39.3893C355.858 39.2555 357.052 40.4609 357.205 43.0057L357.32 44.9382ZM367.826 47.4029C367.515 47.7527 366.987 47.9499 366.242 47.9946C365.518 48.0379 365.004 47.7588 364.701 47.1571C364.064 47.9433 363.086 48.3758 361.766 48.4549C360.882 48.5078 360.176 48.3203 359.648 47.8924C359.121 47.4752 358.835 46.8886 358.789 46.1326C358.682 44.3438 359.889 43.1709 362.41 42.614C362.874 42.5114 363.26 42.4455 363.568 42.4164C363.642 42.4119 363.722 42.4018 363.807 42.3861C363.87 42.3823 363.934 42.3731 363.997 42.3586C364.051 42.3554 364.103 42.3469 364.156 42.3331L364.283 42.3095C364.232 41.4683 364.09 40.8678 363.854 40.5079C363.561 40.0659 363.068 39.8657 362.376 39.9071C361.098 39.9836 360.215 40.5868 359.727 41.7166C359.689 41.7937 359.633 41.8345 359.558 41.839C359.484 41.8434 359.444 41.7977 359.438 41.7019C359.398 41.0311 359.317 40.5765 359.196 40.3379C359.185 40.3279 359.178 40.307 359.176 40.275C359.165 40.0834 359.523 39.8161 360.25 39.4734C361.029 39.0955 361.807 38.8833 362.584 38.8368C363.713 38.7692 364.603 38.9938 365.253 39.5105C365.937 40.0466 366.311 40.8523 366.376 41.9277L366.626 46.1122C366.652 46.5381 366.803 46.7428 367.08 46.7262C367.229 46.7173 367.402 46.6589 367.598 46.5509L367.63 46.549C367.769 46.5407 367.85 46.7389 367.874 47.1435C367.882 47.2819 367.866 47.3684 367.826 47.4029ZM364.462 45.8411L364.305 43.2218L362.926 43.4806C361.558 43.8297 360.905 44.5259 360.968 45.5694C361.038 46.7406 361.584 47.2957 362.606 47.2345C363.053 47.2077 363.485 47.0162 363.902 46.66C364.288 46.327 364.475 46.054 364.462 45.8411ZM376.213 41.5632L374.975 44.9713C374.607 45.9658 374.311 46.7475 374.089 47.3164C374.023 47.4593 373.963 47.5323 373.91 47.5355L373.845 47.5234C373.812 47.5146 373.764 47.5122 373.7 47.516L373.253 47.5428C373.179 47.5473 373.126 47.5558 373.094 47.5683L373.046 47.5712C373.004 47.5737 372.936 47.519 372.844 47.407C371.821 45.4807 370.942 43.8396 370.209 42.4836C369.429 41.0451 368.764 39.856 368.217 38.9163L368.177 38.7905C368.172 38.7053 368.223 38.6595 368.329 38.6532L368.57 38.6548C368.74 38.6446 369.347 38.5281 370.392 38.3053L370.424 38.3033C370.52 38.2976 370.575 38.3264 370.589 38.3896C371.223 39.8691 372.295 42.0703 373.806 44.9932L373.971 44.5345C374.136 44.0759 374.281 43.6557 374.408 43.2741C374.914 41.7265 375.402 40.0677 375.873 38.2977C375.901 38.2319 375.963 38.1961 376.059 38.1904L376.107 38.1875C376.15 38.1956 376.236 38.1958 376.364 38.1882C376.31 38.1914 376.358 38.1779 376.505 38.1476L377.363 38.0162C377.47 38.0098 377.525 38.0439 377.53 38.1184C377.531 38.1503 377.518 38.1992 377.49 38.265C377.06 39.2846 376.634 40.384 376.213 41.5632ZM387.172 42.3497L381.055 42.7159C381.119 43.7807 381.404 44.6131 381.91 45.2133C382.45 45.8435 383.172 46.1315 384.078 46.0773C384.642 46.0435 385.2 45.8178 385.752 45.4001C386.253 45.0174 386.601 44.5905 386.797 44.1193C386.815 44.0541 386.877 44.0184 386.983 44.012C387.058 44.0075 387.098 44.0479 387.103 44.1331C387.139 44.74 387.224 45.1837 387.359 45.4642L387.361 45.4961C387.372 45.6878 387.042 45.98 386.371 46.3728C385.608 46.8246 384.842 47.0734 384.076 47.1193C382.479 47.2149 381.213 46.8633 380.278 46.0644C379.366 45.2855 378.867 44.1826 378.782 42.7559C378.697 41.3504 379.033 40.1709 379.788 39.2174C380.573 38.2301 381.668 37.6943 383.074 37.6102C384.373 37.5324 385.402 37.8555 386.161 38.5794C386.954 39.3227 387.396 40.4716 387.49 42.0262C387.5 42.2072 387.395 42.315 387.172 42.3497ZM385.196 41.2018C385.087 39.3704 384.398 38.4926 383.131 38.5685C382.407 38.6118 381.847 38.9766 381.45 39.6629C381.101 40.2715 380.951 40.975 380.999 41.7736L384.752 41.5489C385.061 41.5304 385.209 41.4147 385.196 41.2018Z" fill="black"/>
</svg>
