<svg width="342" height="142" viewBox="0 0 342 142" fill="none" xmlns="http://www.w3.org/2000/svg">
<path fill-rule="evenodd" clip-rule="evenodd" d="M342 130.5L198 142L211 108L0.5 78.5L33.5 0L273 61L263 88L342 130.5ZM211 137.5L323 127.5L254 91.5L263 65L40 13L18 68.5L216.5 104L211 137.5Z" fill="white"/>
<path d="M323 127.5L211 137.5L216.5 104L18 68.5L40 13L263 65L254 91.5L323 127.5Z" fill="#0D0D0B" fill-opacity="0.8"/>
<path d="M85.4947 56.7775C85.0972 57.0237 84.535 57.0615 83.8081 56.8906C83.102 56.7247 82.6899 56.3101 82.5719 55.6468C81.7365 56.2175 80.675 56.3515 79.3874 56.0489C78.5256 55.8464 77.9031 55.4645 77.52 54.9033C77.1345 54.3525 77.0283 53.7085 77.2016 52.9712C77.6116 51.2268 79.1038 50.4489 81.6782 50.6375C82.1522 50.6722 82.541 50.7197 82.8445 50.7801C82.9172 50.7972 82.9963 50.8103 83.0818 50.8195C83.1441 50.8341 83.2076 50.8435 83.2724 50.8478C83.3243 50.86 83.3774 50.867 83.4318 50.8688L83.5601 50.8825C83.7529 50.0622 83.7881 49.4459 83.6659 49.0337C83.5112 48.5262 83.0964 48.1931 82.4214 48.0345C81.1754 47.7417 80.1567 48.0666 79.3654 49.0092C79.3068 49.0721 79.2411 49.095 79.1684 49.078C79.0958 49.0609 79.0704 49.0056 79.0924 48.9122C79.2461 48.258 79.2991 47.7993 79.2514 47.536C79.2435 47.5232 79.2432 47.5012 79.2505 47.4701C79.2944 47.2832 79.714 47.1298 80.5092 47.0098C81.3636 46.871 82.1698 46.8906 82.9278 47.0687C84.0285 47.3274 84.8165 47.7975 85.2919 48.479C85.7935 49.1886 85.9211 50.0678 85.6746 51.1165L84.7156 55.1973C84.618 55.6127 84.7041 55.8521 84.9741 55.9155C85.1195 55.9497 85.3018 55.9432 85.5211 55.8962L85.5522 55.9035C85.6872 55.9352 85.7083 56.1483 85.6156 56.5429C85.5839 56.6779 85.5436 56.7561 85.4947 56.7775ZM82.7199 54.3174L83.3203 51.763L81.9249 51.6159C80.514 51.5583 79.689 52.0382 79.4498 53.0558C79.1814 54.1981 79.5456 54.8863 80.5425 55.1206C80.9786 55.2231 81.4473 55.1634 81.9487 54.9415C82.4141 54.7331 82.6711 54.5251 82.7199 54.3174ZM96.5162 54.9957C96.2087 56.3041 95.5634 57.3249 94.5802 58.0581C93.5305 58.8413 92.3203 59.0719 90.9497 58.7498C90.1917 58.5717 89.4626 58.0606 88.7624 57.2167L88.6435 57.8627C88.6118 57.9976 88.544 58.0529 88.4401 58.0285L88.409 58.0212C88.1744 57.9003 87.8858 57.7996 87.5431 57.7191C87.2628 57.6532 86.9867 57.6157 86.7149 57.6066C86.6917 57.6121 86.6489 57.6076 86.5866 57.5929C86.5036 57.5734 86.4791 57.491 86.5133 57.3456L87.11 55.0862L87.4916 53.5323L89.1196 46.5352L89.6101 44.1686C89.6345 44.0648 89.6934 44.0238 89.7868 44.0458L90.0947 44.1346C90.2816 44.1785 90.8099 44.215 91.6797 44.2441L91.7108 44.2514C91.825 44.2783 91.87 44.3436 91.8456 44.4474C91.2342 46.7691 90.8833 48.1221 90.793 48.5063L90.3391 50.4377C91.3882 49.6104 92.4839 49.331 93.6261 49.5994C94.9137 49.902 95.8035 50.6152 96.2954 51.7389C96.7257 52.7056 96.7992 53.7912 96.5162 54.9957ZM94.3264 54.3825C94.5241 53.5414 94.5275 52.7807 94.3368 52.1003C94.121 51.2936 93.6289 50.7999 92.8605 50.6193C91.1783 50.224 90.0383 51.2983 89.4404 53.8423C89.2452 54.673 89.2469 55.435 89.4456 56.1282C89.698 56.9655 90.2033 57.4732 90.9613 57.6513C91.8335 57.8563 92.5926 57.5636 93.2386 56.773C93.7393 56.1347 94.1019 55.3378 94.3264 54.3825ZM106.886 57.6136C106.576 58.9324 105.91 59.9263 104.887 60.5953C103.802 61.2937 102.549 61.4758 101.126 61.1415C99.7141 60.8096 98.678 60.0894 98.0181 58.9811C97.3948 57.9032 97.2357 56.7153 97.5408 55.4173C97.8483 54.109 98.5211 53.1111 99.5592 52.4237C100.644 51.7253 101.892 51.5421 103.304 51.8739C104.727 52.2083 105.768 52.9296 106.428 54.038C107.046 55.0926 107.199 56.2845 106.886 57.6136ZM104.604 57.0444L104.622 56.9665C105.188 54.5575 104.703 53.1724 103.166 52.8112C102.367 52.6233 101.681 52.8128 101.11 53.3798C100.566 53.9204 100.147 54.7698 99.8533 55.9279C99.2725 58.3993 99.7609 59.818 101.318 60.184C102.108 60.3695 102.788 60.1787 103.359 59.6118C103.916 59.0632 104.331 58.2074 104.604 57.0444ZM114.945 64.241L114.914 64.2337C114.747 64.1507 114.45 64.0592 114.025 63.9591C113.609 63.8615 113.309 63.8127 113.122 63.8128L113.091 63.8054C112.987 63.781 112.948 63.7169 112.972 63.6131C113.031 63.3639 113.124 63.0352 113.253 62.6272C112.469 63.3524 111.449 63.5674 110.192 63.2721C108.012 62.7596 107.213 61.2625 107.796 58.7808L108.411 56.1641L108.945 53.5447C108.974 53.4201 109.046 53.3712 109.16 53.398L109.452 53.4831C109.514 53.4978 110.047 53.5407 111.049 53.6119L111.08 53.6192C111.205 53.6485 111.254 53.7203 111.227 53.8345L110.755 55.5643L109.941 58.9561C109.702 59.9737 109.645 60.7055 109.77 61.1513C109.918 61.69 110.35 62.0435 111.066 62.2119C111.596 62.3363 112.132 62.2433 112.677 61.9329C113.244 61.617 113.595 61.1735 113.729 60.6024L114.424 57.643L114.871 55.4634C114.907 55.2636 114.944 55.0807 114.983 54.9145L114.991 54.8834C115.008 54.8107 115.058 54.7841 115.141 54.8037L115.203 54.8183C115.232 54.836 115.309 54.8595 115.433 54.8888C115.485 54.901 116.033 54.9476 117.077 55.0285L117.108 55.0358C117.233 55.0651 117.284 55.1265 117.262 55.2199L116.48 58.1262L115.803 61.0077C115.623 61.7761 115.411 62.8166 115.168 64.1292C115.144 64.233 115.069 64.2703 114.945 64.241ZM122.129 65.5843C121.448 65.775 120.734 65.7825 119.987 65.6068C119.208 65.4238 118.676 65.1234 118.391 64.7057C118.102 64.2545 118.052 63.629 118.24 62.8295L119.624 56.9419L118.195 56.6555C118.081 56.6287 118.034 56.5737 118.053 56.4906C118.065 56.4387 118.079 56.4036 118.094 56.3853C118.147 56.2991 118.187 56.199 118.214 56.0847C118.244 55.9601 118.255 55.8423 118.248 55.7311C118.24 55.7183 118.242 55.6859 118.254 55.634C118.274 55.5509 118.341 55.5228 118.455 55.5496L119.865 55.9139L120.352 53.5629C120.379 53.4487 120.449 53.405 120.563 53.4318C121.135 53.5661 121.773 53.5079 122.478 53.2573L122.513 53.249C122.669 53.2856 122.732 53.3662 122.703 53.4908L122.187 55.4076C122.13 55.6024 122.041 55.9323 121.921 56.3971L123.969 56.8455C124.104 56.8772 124.16 56.9398 124.138 57.0332L124.008 57.4464L123.944 57.8587C123.922 57.9522 123.844 57.9831 123.709 57.9513L121.68 57.4251L120.292 63.3282C120.141 63.972 120.403 64.3732 121.078 64.5319C121.389 64.6051 121.749 64.6349 122.158 64.6214L122.189 64.6287C122.366 64.6702 122.406 64.8934 122.311 65.2984C122.272 65.4645 122.211 65.5598 122.129 65.5843ZM138.01 62.9395L136.834 64.3068C135.373 66.1437 134.373 67.3222 133.834 67.8421C132.765 68.8947 131.13 69.1624 128.928 68.645L128.586 68.5645C128.471 68.5376 128.411 68.4686 128.404 68.3575C128.443 67.6325 128.434 67.2031 128.378 67.0694L128.365 66.9842C128.392 66.87 128.473 66.8287 128.608 66.8604L128.624 66.8641C129.231 67.1711 129.742 67.3735 130.157 67.4711C131.31 67.742 132.141 67.6578 132.649 67.2185C130.993 62.0518 130.238 59.1569 130.384 58.5339C130.404 58.4509 130.47 58.4227 130.585 58.4496L130.815 58.5201C131.147 58.5982 131.757 58.6594 132.645 58.7037L132.676 58.711C132.739 58.7257 132.783 58.769 132.81 58.8411C133.185 60.8358 133.712 62.9978 134.392 65.3271C135.152 64.3771 135.854 63.4681 136.496 62.6C137.103 61.7894 137.654 61.0313 138.148 60.3257C138.207 60.2628 138.262 60.2374 138.314 60.2496L138.361 60.2606C138.389 60.2783 138.466 60.3018 138.591 60.3311C138.809 60.3823 139.199 60.4247 139.761 60.4581L139.823 60.4728C139.906 60.4923 139.938 60.5436 139.918 60.6266L139.858 60.7439L139.007 61.7767C138.671 62.1799 138.339 62.5675 138.01 62.9395ZM149.065 67.5263C148.755 68.845 148.089 69.8389 147.066 70.508C145.981 71.2064 144.728 71.3884 143.305 71.0541C141.893 70.7222 140.857 70.0021 140.197 68.8937C139.574 67.8159 139.415 66.628 139.72 65.33C140.027 64.0216 140.7 63.0238 141.738 62.3364C142.823 61.638 144.071 61.4547 145.483 61.7866C146.906 62.1209 147.947 62.8423 148.607 63.9507C149.225 65.0053 149.377 66.1972 149.065 67.5263ZM146.783 66.957L146.801 66.8792C147.367 64.4701 146.882 63.085 145.345 62.7239C144.546 62.536 143.86 62.7255 143.289 63.2924C142.745 63.8331 142.326 64.6825 142.032 65.8406C141.451 68.3119 141.94 69.7306 143.497 70.0967C144.287 70.2821 144.967 70.0914 145.538 69.5245C146.095 68.9758 146.51 68.12 146.783 66.957ZM157.124 74.1537L157.092 74.1464C156.926 74.0634 156.629 73.9718 156.204 73.8718C155.788 73.7742 155.488 73.7254 155.301 73.7254L155.27 73.7181C155.166 73.6937 155.127 73.6296 155.151 73.5257C155.21 73.2765 155.303 72.9479 155.432 72.5399C154.648 73.2651 153.628 73.48 152.371 73.1847C150.191 72.6723 149.392 71.1752 149.975 68.6935L150.59 66.0768L151.124 63.4573C151.153 63.3327 151.225 63.2838 151.339 63.3107L151.631 63.3958C151.693 63.4104 152.226 63.4534 153.228 63.5246L153.259 63.5319C153.384 63.5612 153.433 63.6329 153.406 63.7471L152.934 65.477L152.12 68.8688C151.881 69.8864 151.824 70.6181 151.949 71.064C152.097 71.6026 152.529 71.9561 153.245 72.1245C153.775 72.249 154.311 72.156 154.856 71.8456C155.423 71.5297 155.774 71.0862 155.908 70.515L156.603 67.5557L157.05 65.376C157.086 65.1763 157.123 64.9933 157.162 64.8272L157.17 64.7961C157.187 64.7234 157.237 64.6968 157.32 64.7163L157.382 64.731C157.411 64.7487 157.488 64.7722 157.612 64.8014C157.664 64.8136 158.212 64.8602 159.256 64.9412L159.287 64.9485C159.412 64.9778 159.463 65.0391 159.441 65.1326L158.659 68.0389L157.982 70.9204C157.802 71.6888 157.59 72.7293 157.347 74.0419C157.323 74.1457 157.248 74.183 157.124 74.1537ZM167.982 75.292C167.889 75.6866 167.67 75.9911 167.323 76.2056C166.977 76.4201 166.555 76.4688 166.056 76.3516C165.568 76.2369 165.207 76.004 164.971 75.6529C164.757 75.3066 164.696 74.9362 164.789 74.5416C164.882 74.1471 165.101 73.8425 165.447 73.6281C165.814 73.4185 166.242 73.371 166.73 73.4857C167.228 73.6028 167.585 73.8345 167.799 74.1808C168.014 74.527 168.075 74.8975 167.982 75.292ZM173.564 76.604C173.471 76.9985 173.252 77.3031 172.906 77.5175C172.559 77.732 172.137 77.7807 171.639 77.6635C171.151 77.5488 170.789 77.3159 170.554 76.9648C170.339 76.6186 170.278 76.2481 170.371 75.8536C170.464 75.459 170.683 75.1544 171.03 74.94C171.397 74.7304 171.824 74.6829 172.312 74.7976C172.811 74.9148 173.167 75.1465 173.381 75.4927C173.596 75.839 173.657 76.2094 173.564 76.604ZM179.146 77.9159C179.054 78.3105 178.834 78.615 178.488 78.8295C178.142 79.0439 177.719 79.0926 177.221 78.9755C176.733 78.8608 176.371 78.6279 176.136 78.2767C175.922 77.9305 175.861 77.5601 175.953 77.1655C176.046 76.7709 176.266 76.4664 176.612 76.2519C176.979 76.0423 177.406 75.9948 177.894 76.1095C178.393 76.2267 178.749 76.4584 178.964 76.8046C179.178 77.1509 179.239 77.5213 179.146 77.9159Z" fill="white"/>
</svg>
